<svg width="945" height="484" viewBox="0 0 945 484" fill="none" xmlns="http://www.w3.org/2000/svg">
<path d="M250.797 217.324C250.797 217.324 263.473 237.848 283.995 248.709C283.995 248.709 364.271 202.836 306.929 135.84C306.929 135.84 275.024 90.205 207.009 135.748C138.996 181.292 157.272 343.389 278.319 346.086C399.368 348.784 420.343 226.537 420.343 226.537C420.343 226.537 430.228 151.629 401.767 99.7943C373.3 47.961 312.476 1.51834 224.088 0.0196838C135.699 -1.47766 27.1947 82.9903 19.6987 196.369C12.2027 309.748 66.5494 392.204 112.463 436.244H312.047C312.047 436.244 100.281 316.308 114.337 200.117C128.393 83.9263 198.668 62.3757 249.267 63.3117C299.867 64.2477 372.952 105.478 364.52 198.242C356.087 291.008 274.567 285.384 274.567 285.384C274.567 285.384 214.599 281.637 211.787 220.732C211.787 220.732 210.851 164.509 266.132 167.322C266.132 167.322 294.243 175.753 285.811 198.242C277.379 220.732 270.131 219.542 250.797 217.324Z" fill="#A9CF37"/>
<path d="M27.2166 351.261C26.4286 351.261 25.6059 351.192 24.7699 351.059C20.0646 350.307 17.2606 347.812 15.6766 344.925C15.5806 344.931 15.4793 344.933 15.3726 344.933H14.2686L13.5499 344.095C12.8273 343.256 12.8273 343.256 13.5259 338.66L15.5606 325.285C19.7073 298.061 45.9459 189.239 51.0219 168.284L19.6299 173.099C18.8526 173.428 17.0393 174.072 14.7886 174.072H14.7873C12.0606 174.072 7.02192 173.041 3.92592 166.145C2.12459 162.137 1.92726 158.683 3.33792 155.881C5.18459 152.215 8.98459 151.288 9.41126 151.195L87.1339 136.731L87.2499 136.72C87.3593 136.709 98.3273 135.759 109.665 135.759C118.883 135.759 125.847 136.376 130.365 137.595C135.225 138.907 138.411 141.255 139.834 144.571C141.838 149.24 139.373 153.888 139.267 154.084L138.698 155.135L82.6059 163.688L39.3273 340.573C38.6366 344.32 35.2486 351.261 27.2166 351.261Z" fill="#BF1E2D"/>
<path d="M109.665 133.354C98.2224 133.354 87.4918 134.284 87.0398 134.324L86.8091 134.344L86.5811 134.387L9.04644 148.816L8.97043 148.83L8.8971 148.846C8.35577 148.964 3.53709 150.14 1.19043 154.8C-0.561572 158.28 -0.378898 162.43 1.7331 167.131C5.38377 175.263 11.4784 176.476 14.7878 176.476C17.2064 176.476 19.1904 175.86 20.2758 175.434L47.8398 171.204C41.1491 198.856 17.2078 298.502 13.1838 324.923L11.1491 338.298L10.7358 341.022C10.5478 342.274 10.2878 343.99 11.7251 345.662L13.1651 347.336H14.3891C16.4171 350.29 19.6238 352.671 24.3918 353.434C25.3504 353.587 26.3024 353.664 27.2171 353.664C36.7771 353.664 40.8278 345.538 41.6784 341.083L84.5584 165.823L137.877 157.692L140.242 157.331L141.381 155.228C141.704 154.634 144.46 149.252 142.044 143.623C140.316 139.596 136.597 136.787 130.992 135.274C126.27 133.999 119.094 133.354 109.665 133.354ZM109.665 138.162C117.094 138.162 124.748 138.57 129.738 139.916C142.36 143.324 137.153 152.938 137.153 152.938L80.6531 161.554L36.9744 340.074C36.9744 340.074 35.4278 348.856 27.2171 348.856C26.5704 348.856 25.8824 348.802 25.1504 348.684C15.1344 347.084 16.3358 336.264 16.3358 336.264C16.3358 336.264 15.3771 342.528 15.3731 342.528C15.3691 342.528 15.9331 338.81 17.9384 325.647C22.5451 295.391 54.2051 165.363 54.2051 165.363L18.9424 170.772C18.9424 170.772 17.1518 171.668 14.7878 171.668C12.0291 171.668 8.49309 170.447 6.11843 165.16C1.70909 155.344 9.92643 153.543 9.92643 153.543L87.4611 139.115C87.4611 139.115 98.3011 138.162 109.665 138.162Z" fill="white"/>
<path d="M244.237 198.736C242.528 199.023 239.269 207.072 237.623 217.044C236.992 221.736 236.861 230.443 239.239 233.542C239.817 234.295 240.359 234.452 240.765 234.504C240.916 234.523 241.064 234.534 241.209 234.534C244.401 234.534 246.696 229.25 248.031 218.828L248.093 218.347C248.888 212.278 247.637 199.643 244.245 198.739L244.237 198.736ZM113.987 317.684C113.529 317.684 113.065 317.667 112.597 317.635C112.529 317.636 112.445 317.638 112.348 317.638C110.643 317.638 104.675 317.152 99.4827 310.895C90.584 300.175 88.9254 279.042 94.5454 248.067C93.9534 247.794 93.144 247.535 92.2067 247.535C91.8307 247.535 91.452 247.576 91.072 247.658C90.584 253.882 88.4734 276.163 82.744 285.439C82.0574 287.275 79.3787 293.532 74.8014 293.532C73.7694 293.532 72.768 293.212 71.8267 292.586C66.924 289.312 68.3814 285.452 69.1641 283.38C69.3494 282.888 69.5254 282.424 69.616 282.03C70.3147 279.006 74.512 250.171 73.7254 239.216C71.5 238.251 67.6254 235.994 66.54 231.688C65.344 226.94 67.9547 221.434 74.2974 215.322L74.44 215.195C74.9867 214.747 79.9347 210.814 85.204 210.814C88.3987 210.814 91.064 212.264 92.9187 215.008C93.6227 215.874 95.976 219.283 94.312 224.528L101.361 224.639C102.72 221.45 106.32 215.027 113.272 215.027C114.393 215.027 115.555 215.204 116.723 215.552C119.852 216.483 124.152 218.16 125.349 221.947C126.579 225.828 123.905 230.096 121.013 233.81C116.264 249.655 106.977 290.646 118.375 298.736C118.435 298.742 118.509 298.746 118.592 298.746C120.639 298.746 122.612 296.63 124.004 292.94C124.648 291.238 125.343 289.74 126.079 288.154C129.305 281.204 133.321 272.554 136.081 238.299C136.179 235.052 137.484 205.528 151.444 205.528C151.984 205.528 152.54 205.575 153.096 205.668C158.46 206.562 161.948 208.626 163.463 211.806C165.096 215.232 163.759 218.692 163.212 219.848C162.411 223.835 154.244 265.071 156.091 279.462L156.109 279.614V279.767C156.109 279.862 156.276 289.588 161.123 290.419C161.183 290.43 161.244 290.434 161.305 290.434H161.307C165.404 290.432 172.844 274.126 174.555 258.072C176.088 243.68 180.244 210.352 180.552 207.883C180.571 206.975 180.82 203.76 183.361 201.159C185.448 199.023 188.432 197.94 192.231 197.94C192.847 197.94 193.5 197.968 194.191 198.031C198.397 198.406 201.401 199.798 203.121 202.17C205.455 205.388 204.571 209.207 204.237 210.643C204.219 210.73 204.2 210.803 204.187 210.866C204.163 211.171 204.072 211.879 203.736 214.462C202.417 224.574 198.404 255.347 199.372 264.072C200.876 277.619 202.672 281.723 203.987 282.664C206.433 281.834 213.932 271.648 215.207 258.491C214.975 254.78 212.575 211.752 224.088 188.926C224.388 188.358 231.033 176.032 241.029 176.032C243.015 176.032 244.983 176.52 246.892 177.486C247.721 177.37 249.061 177.226 250.64 177.226C257.843 177.226 262.921 180.106 264.941 185.334C268.524 194.606 269.968 218.603 260.092 233.418C253.791 242.867 248.744 249.554 241.153 249.554C239.477 249.554 237.741 249.235 235.843 248.566C236.027 255.45 237.304 266.919 241.965 271.822C243.383 273.314 244.996 274.076 246.893 274.151C248.011 273.936 254.544 272.455 258.504 266.599L259.323 265.392C264.469 257.822 274.048 243.731 277.568 225.024C277.759 224.134 279.475 216.878 284.553 216.878C285.144 216.878 285.743 216.983 286.333 217.19C292.077 219.2 290.876 227.696 290.719 228.658C290.515 230.455 284.959 275.363 249.613 288.594C248.84 288.952 244.793 290.71 239.579 290.71C235.109 290.71 229.012 289.395 223.688 283.66C220.889 289.484 214.288 299.638 202.223 299.8L201.94 299.803C190.541 299.803 184.48 290.815 181.641 281.855C178.215 292.783 170.988 307.623 157.013 307.623C156.823 307.623 156.225 307.608 156.225 307.608L156.015 307.564C155.415 307.438 143.769 304.892 138.92 296.616C132.152 310.602 123.779 317.684 113.987 317.684Z" fill="#BF1E2D"/>
<path d="M240.006 217.37C240.974 211.575 242.778 205.45 244.287 202.466C245.623 205.877 246.296 213.546 245.71 218.033L245.646 218.523C243.951 231.759 241.236 232.129 241.21 232.129C241.199 232.129 241.187 232.129 241.175 232.129C239.756 230.745 239.179 223.561 240.006 217.37ZM241.031 173.629H241.028C229.795 173.629 222.751 186.311 221.984 187.757L221.963 187.799L221.94 187.842C210.323 210.875 212.5 253.547 212.795 258.446C211.816 268.035 207.336 275.851 204.562 279.026C203.784 276.951 202.744 272.663 201.762 263.809C201.142 258.209 202.607 241.711 206.119 214.773C206.402 212.61 206.518 211.713 206.566 211.249L206.58 211.186C206.943 209.622 208.043 204.865 205.067 200.759C202.922 197.799 199.335 196.075 194.404 195.635C193.662 195.569 192.93 195.537 192.23 195.537C186.663 195.535 183.399 197.679 181.643 199.478C178.651 202.541 178.212 206.315 178.155 207.678C177.767 210.786 173.683 243.563 172.164 257.818C170.666 271.875 164.438 286.155 161.242 287.961C159.595 287.223 158.534 282.757 158.514 279.753L158.512 279.461L158.475 279.155C156.938 267.173 162.922 233.401 165.511 220.606C166.276 218.886 167.591 214.881 165.634 210.771C163.76 206.842 159.675 204.326 153.49 203.297C152.806 203.182 152.116 203.125 151.444 203.125C135.662 203.123 133.875 232.067 133.675 238.223C130.95 271.95 127.04 280.373 123.899 287.143C123.144 288.769 122.43 290.306 121.755 292.09C120.835 294.529 119.803 295.753 119.098 296.17C116.927 293.866 113.379 286.513 116.81 263.726C118.791 250.566 122.248 238.187 123.198 234.915C126.36 230.79 129.158 226.009 127.643 221.222C126.099 216.345 121.062 214.335 117.408 213.247C116.019 212.834 114.627 212.623 113.274 212.623H113.271C106.487 212.623 102.091 217.686 99.811 222.21L97.2363 222.17C97.6096 218.25 96.2136 215.199 94.807 213.51C92.5163 210.218 89.119 208.41 85.2043 208.41C79.099 208.409 73.531 212.833 72.9163 213.337L72.767 213.458L72.6296 213.591C65.6203 220.343 62.787 226.63 64.2083 232.275C65.339 236.761 68.755 239.375 71.395 240.773C71.7296 252.067 67.9083 278.691 67.2736 281.489C67.219 281.726 67.0643 282.135 66.915 282.531C66.1176 284.642 64.0003 290.25 70.491 294.585C71.8163 295.47 73.307 295.935 74.8016 295.935C80.679 295.935 83.8523 289.266 84.915 286.497C86.527 283.814 87.8563 280.239 88.947 276.317C88.523 292.855 91.4216 304.949 97.6323 312.431C103.494 319.493 110.378 320.042 112.348 320.042C112.419 320.042 112.484 320.041 112.544 320.041C113.026 320.073 113.51 320.089 113.986 320.089C123.904 320.089 132.396 313.718 139.302 301.126C145.354 307.699 154.954 309.799 155.522 309.918L155.94 310.006L156.367 310.018C156.583 310.025 156.8 310.029 157.012 310.029C169.896 310.029 177.48 298.926 181.756 288.534C185.482 295.981 191.804 302.206 201.94 302.206L202.255 302.205C213.714 302.05 220.658 293.879 224.314 287.586C229.584 292.021 235.262 293.115 239.579 293.115C245.118 293.115 249.398 291.338 250.546 290.813C286.646 277.225 292.727 232.105 293.11 228.934C293.93 223.695 292.854 216.925 287.127 214.921C286.282 214.625 285.415 214.474 284.554 214.474C279.271 214.474 276.274 219.629 275.23 224.453L275.216 224.515L275.204 224.579C271.778 242.794 262.382 256.615 257.335 264.041L256.511 265.254C253.298 270.007 248.111 271.43 246.732 271.733C245.578 271.63 244.632 271.137 243.711 270.167C240.408 266.697 238.863 258.611 238.386 251.718C239.326 251.879 240.243 251.958 241.152 251.958C249.92 251.958 255.59 244.501 262.092 234.753C272.428 219.246 270.928 194.157 267.183 184.467C264.782 178.247 258.907 174.822 250.64 174.822C249.33 174.822 248.172 174.911 247.29 175.011C245.256 174.093 243.158 173.629 241.031 173.629ZM241.21 236.938C248.376 236.938 249.898 223.113 250.478 218.657C251.08 214.049 250.876 198.018 244.866 196.417C244.652 196.359 244.443 196.333 244.236 196.333C238.607 196.334 235.251 216.653 235.251 216.653C235.251 216.653 232.644 235.885 240.459 236.889C240.716 236.922 240.966 236.938 241.21 236.938ZM241.03 178.437C242.752 178.437 244.575 178.895 246.468 179.99C246.468 179.99 248.239 179.63 250.64 179.63C254.699 179.63 260.559 180.661 262.699 186.201C266.106 195.017 267.308 218.259 258.091 232.085C251.427 242.078 247.068 247.149 241.152 247.149C238.884 247.149 236.388 246.405 233.446 244.905C233.446 244.905 232.246 276.365 247.07 276.561C247.07 276.561 255.484 275.358 260.496 267.946C265.506 260.534 276.122 245.709 279.93 225.469C279.93 225.469 281.268 219.283 284.554 219.283C284.864 219.283 285.194 219.338 285.539 219.459C289.547 220.862 288.346 228.274 288.346 228.274C288.346 228.274 283.135 273.554 248.676 286.377C248.676 286.377 244.767 288.307 239.579 288.307C234.462 288.307 228.1 286.427 223.027 278.966C223.027 278.966 217.218 297.194 202.19 297.397C202.106 297.398 202.024 297.398 201.94 297.398C187.114 297.398 182.354 279.511 181.958 270.149C181.958 270.149 176.832 305.219 157.012 305.219C156.847 305.219 156.678 305.217 156.51 305.211C156.51 305.211 140.28 301.806 139.282 289.981C138.887 289.981 130.888 315.279 113.986 315.279C113.542 315.279 113.088 315.262 112.632 315.226C112.632 315.226 112.532 315.234 112.348 315.234C109.399 315.234 84.7616 313.275 97.2043 246.906C97.2043 246.906 95.2083 245.131 92.2056 245.131C91.1723 245.131 90.0203 245.341 88.7896 245.906C88.7896 245.906 86.983 274.353 80.5723 284.375C80.5723 284.375 78.175 291.127 74.8016 291.127C74.2776 291.127 73.7283 290.963 73.1616 290.586C68.955 287.777 71.3603 285.171 71.959 282.57C72.5616 279.966 77.3696 247.707 75.9656 237.489C75.9656 237.489 59.535 232.883 75.9656 217.054C75.9656 217.054 80.643 213.218 85.2043 213.218C87.3176 213.218 89.4056 214.042 90.9923 216.453C90.9923 216.453 94.5976 220.259 90.5936 226.874L103.015 227.07C103.015 227.07 105.904 217.43 113.272 217.431C114.131 217.431 115.054 217.563 116.036 217.857C125.456 220.661 124.854 225.069 118.842 232.682C118.842 232.682 101.21 290.785 117.439 301.002C117.439 301.002 117.88 301.149 118.591 301.149C120.368 301.149 123.823 300.229 126.254 293.79C129.662 284.774 135.071 280.767 138.478 238.493C138.478 238.493 139.412 207.933 151.444 207.933C151.85 207.933 152.268 207.967 152.7 208.039C165.924 210.242 160.919 219.059 160.919 219.059C160.919 219.059 151.7 264.142 153.706 279.767C153.706 279.767 153.706 291.587 160.716 292.789C160.912 292.822 161.11 292.839 161.307 292.839C168.15 292.839 175.388 272.933 176.946 258.327C178.547 243.302 182.956 208.039 182.956 208.039C182.956 208.039 182.775 200.343 192.23 200.345C192.779 200.345 193.362 200.37 193.978 200.426C205.196 201.426 201.791 209.841 201.791 210.643C201.791 211.445 195.783 253.519 196.983 264.338C198.183 275.157 199.787 283.373 203.191 284.975C203.386 285.066 203.599 285.11 203.831 285.11C207.668 285.11 216.292 272.889 217.618 258.529C217.618 258.529 214.612 213.05 226.234 190.009C226.234 190.009 232.366 178.435 241.03 178.437Z" fill="white"/>
<path d="M340.58 318.721L351.553 155.213C330.188 153.98 285.273 133.594 283.313 132.701L280.893 131.597L289.857 96.1182L293.604 98.5862C302.22 104.262 323.196 108.226 344.611 108.226C357.98 108.226 370.835 106.709 381.784 103.838C413.763 95.4582 458.217 95.2169 463.181 95.2169L467.192 95.2409L464.543 146.668L461.037 146.108C453.937 144.972 445.727 144.396 436.633 144.396C415.98 144.396 396.011 147.376 388.881 148.561L399.121 332.802L340.58 318.721Z" fill="#006838"/>
<path d="M287.865 90.9878L285.668 99.6864L278.454 128.238L277.15 133.394L281.99 135.601C286.717 137.757 325.8 155.35 348.164 158.1L337.578 315.822L337.218 321.19L342.449 322.45L394.208 334.9L402.542 336.904L402.066 328.345L392.224 151.254C400.858 149.914 418.489 147.584 436.633 147.584C445.558 147.584 453.6 148.146 460.533 149.256L467.544 150.377L467.909 143.288L470.205 98.7344L470.548 92.0758L463.88 92.0291L463.181 92.0278C458.176 92.0278 413.34 92.2731 380.976 100.754C370.285 103.557 357.712 105.038 344.61 105.038C321.36 105.038 302.234 100.453 295.358 95.9238L287.865 90.9878ZM463.181 98.4051C463.612 98.4051 463.837 98.4064 463.837 98.4064L461.541 142.96C453.598 141.688 445.041 141.208 436.633 141.208C410.357 141.208 385.54 145.906 385.54 145.906L395.7 328.698L343.941 316.249L354.962 152.038C354.488 152.069 353.996 152.084 353.482 152.084C333.492 152.084 284.637 129.8 284.637 129.8L291.85 101.249C300.7 107.078 321.742 111.414 344.61 111.414C357.3 111.414 370.552 110.08 382.592 106.922C414.017 98.6878 457.366 98.4051 463.181 98.4051Z" fill="white"/>
<path d="M506.749 226.165L536.557 124.286L559.485 212.078L506.749 226.165ZM548.677 93.4942L516.249 95.1315C495.938 140.01 430.42 307.077 430.42 307.077C431.73 313.954 471.369 339.505 471.369 339.505C473.66 329.023 491.678 275.958 491.678 275.958L579.144 275.301L591.922 325.094L594.542 326.073C600.762 318.542 614.193 315.922 614.193 315.922L548.677 93.4942Z" fill="#006838"/>
<path d="M682.003 89.2344L694.123 86.2864L696.743 101.681C696.743 101.681 710.171 97.7504 728.847 101.681L732.451 87.2678L741.948 89.2344L737.692 107.25C737.692 107.25 749.486 116.424 754.071 125.269L764.879 117.734L771.434 128.544L758.987 136.077L764.556 152.457L752.758 157.698C752.758 157.698 736.052 124.288 705.588 126.906C675.126 129.528 653.5 167.408 655.143 201.596C656.743 234.917 670.539 267.441 707.883 266.13C745.227 264.82 748.828 224.201 748.828 224.201L760.298 218.63L765.866 237.63L777.33 236.649L777.655 247.46H766.522C766.522 247.46 766.522 259.577 762.26 270.716L775.364 275.957L771.434 285.786L757.676 280.214C757.676 280.214 752.758 292.337 740.312 300.201L746.536 316.249L736.38 323.458L728.847 305.441C728.847 305.441 716.724 312.973 699.364 310.681L696.743 329.68L684.626 326.73L689.535 308.713L669.882 302.164L662.35 317.232L652.852 309.702L659.73 295.284C659.73 295.284 648.262 285.789 641.711 274.32L627.624 282.838L621.402 273.34L635.484 264.165C635.484 264.165 625.662 240.252 626.312 219.614L610.592 222.561L607.97 209.785L625.983 206.182C625.983 206.182 628.603 182.926 635.162 163.924L620.744 153.77L627.952 142.63L640.732 152.132C640.732 152.132 650.226 133.129 654.486 130.184L643.023 114.786L652.195 107.58L663.002 121.338C663.002 121.338 674.468 108.236 685.608 104.958L682.003 89.2344Z" fill="#006838"/>
<path d="M862.666 296.923C834.17 296.923 811.068 264.731 811.068 225.019C811.068 185.308 834.17 153.116 862.666 153.116C891.16 153.116 914.26 185.308 914.26 225.019C914.26 264.731 891.16 296.923 862.666 296.923ZM864.794 100.047C821.01 100.047 785.519 149.104 785.519 209.623C785.519 270.143 821.01 319.201 864.794 319.201C908.578 319.201 944.071 270.143 944.071 209.623C944.071 149.104 908.578 100.047 864.794 100.047Z" fill="#006838"/>
<path d="M11.6267 457.913H78.2507L44.8627 483.744L11.6267 457.913Z" fill="#BF1E2D"/>
<path d="M78.2511 457.913L144.874 457.908L111.486 483.743L78.2511 457.913Z" fill="#BF1E2D"/>
<path d="M144.873 457.908H211.499L178.109 483.743L144.873 457.908Z" fill="#BF1E2D"/>
<path d="M211.498 457.908L278.125 457.906L244.736 483.738L211.498 457.908Z" fill="#BF1E2D"/>
<path d="M278.125 457.906L344.749 457.9L311.361 483.735L278.125 457.906Z" fill="#BF1E2D"/>
<path d="M344.749 457.9H411.374L377.986 483.735L344.749 457.9Z" fill="#BF1E2D"/>
<path d="M411.374 457.9L478.001 457.898L444.609 483.735L411.374 457.9Z" fill="#BF1E2D"/>
<path d="M478 457.898H544.623L511.234 483.73L478 457.898Z" fill="#BF1E2D"/>
<path d="M544.623 457.898L611.247 457.897L577.857 483.727L544.623 457.898Z" fill="#BF1E2D"/>
<path d="M611.247 457.897H677.869L644.485 483.727L611.247 457.897Z" fill="#BF1E2D"/>
<path d="M677.869 457.897L744.494 457.893L711.109 483.726L677.869 457.897Z" fill="#BF1E2D"/>
<path d="M744.494 457.893H811.121L777.73 483.726L744.494 457.893Z" fill="#BF1E2D"/>
<path d="M811.12 457.893L877.745 457.89L844.356 483.721L811.12 457.893Z" fill="#BF1E2D"/>
<path d="M877.745 457.89L944.37 457.887L910.982 483.719L877.745 457.89Z" fill="#BF1E2D"/>
<path d="M944.076 458.105H11.6627V362.274H944.076V458.105Z" fill="#BF1E2D"/>
<path d="M54.5284 396.753C54.2124 398.135 53.6804 400.639 52.9311 404.267C52.4964 406.277 52.0831 408.171 51.6897 409.945L57.7817 410.892C56.1644 405.725 55.0804 401.012 54.5284 396.753ZM48.0217 389.063L61.3311 390.009C62.2377 391.745 63.0257 393.995 63.6964 396.753L65.4724 403.733C68.8231 414.54 72.3337 423.491 76.0004 430.589L64.6431 433.547C62.1977 427.435 60.5417 422.092 59.6751 417.516L50.0324 416.569C48.2577 421.46 47.3111 424.141 47.1937 424.615C46.2071 427.376 45.4977 430.116 45.0631 432.837L34.2391 430.531C41.5337 413.219 46.1284 399.396 48.0217 389.063Z" fill="white"/>
<path d="M78.6027 389.182L91.4387 387.763C91.3214 389.184 91.0641 391.2 90.6694 393.807C90.2361 396.571 90.0201 398.606 90.0201 399.91V406.487V410.338V413.064C90.0201 419.227 91.9627 422.308 95.8494 422.308C97.8894 422.308 99.5774 421.328 100.912 419.37C102.247 417.411 102.915 415.066 102.915 412.335V401.415C102.915 398.684 102.599 394.588 101.968 389.127L115.041 387.763C114.055 394.95 113.563 399.294 113.563 400.794C113.563 401.662 113.641 403.698 113.799 406.895C113.956 410.094 114.036 412.148 114.036 413.055C114.036 418.267 112.349 422.651 108.977 426.206C105.605 429.76 101.337 431.536 96.1707 431.536C89.8214 431.536 85.4441 430.352 83.0401 427.987C80.6334 425.62 79.4307 421.303 79.4307 415.032C79.4307 403.951 79.1547 395.334 78.6027 389.182Z" fill="white"/>
<path d="M119.536 397.818L120.187 389.181H129.238C137.794 389.181 144.223 389.104 148.522 388.946L148.935 397.346L140.003 397.581V420.296C140.003 421.441 140.2 424.872 140.595 430.589L127.936 432.482C128.566 428.058 128.883 422.608 128.883 416.128C128.883 412.732 128.863 409.612 128.823 406.766C128.744 402.026 128.724 398.905 128.764 397.404C126.635 397.286 125.058 397.228 124.032 397.228C124.307 397.228 122.81 397.425 119.536 397.818Z" fill="white"/>
<path d="M154.081 389.182L167.628 388.235C167.588 388.591 167.41 389.655 167.094 391.431C166.858 392.771 166.74 393.835 166.74 394.624V404.799H178.806V398.922C178.806 396.746 178.57 393.48 178.097 389.126L191.11 388.235C190.52 394.831 190.224 398.82 190.224 400.202V420.163C190.224 421.191 190.302 423.028 190.461 425.672C190.736 428.635 190.874 430.272 190.874 430.59L178.806 431.536V429.643V426.982V412.843H166.858V420.534C166.858 424.28 167.036 427.632 167.39 430.59L155.146 431.772C155.461 428.815 155.62 423.098 155.62 414.618C155.62 404.01 155.106 395.532 154.081 389.182Z" fill="white"/>
<path d="M197.203 389.182L223.822 390.602L223.171 398.114C220.292 397.918 215.974 397.7 210.216 397.463V405.035C213.214 404.562 217.708 403.971 223.703 403.262L223.348 411.896C222.796 411.896 218.419 412.291 210.216 413.08V421.539L224.414 419.587L225.538 428.756L198.446 430.59C198.446 429.722 198.494 427.779 198.592 424.763C198.691 421.746 198.74 419.804 198.74 418.935V405.39C198.74 399.711 198.228 394.31 197.203 389.182Z" fill="white"/>
<path d="M231.985 390.365L242.691 387.585L252.155 403.143C255.587 408.9 258.327 414.283 260.378 419.291C259.51 414.599 259.077 406.849 259.077 396.044C259.077 392.297 259.037 389.477 258.958 387.585L269.429 389.181C268.837 395.532 268.541 402.512 268.541 410.121C268.541 415.525 268.679 422.032 268.955 429.643L257.362 431.655L249.198 417.221C246.319 412.015 243.913 407.067 241.982 402.373C242.297 413.297 242.79 423.708 243.461 433.607L231.63 430.589C232.142 423.531 232.399 416.451 232.399 409.353C232.399 404.069 232.261 397.74 231.985 390.365Z" fill="white"/>
<path d="M268.778 397.818L269.428 389.181H278.479C287.035 389.181 293.465 389.104 297.763 388.946L298.176 397.346L289.244 397.581V420.296C289.244 421.441 289.442 424.872 289.836 430.589L277.178 432.482C277.807 428.058 278.124 422.608 278.124 416.128C278.124 412.732 278.104 409.612 278.064 406.766C277.986 402.026 277.966 398.905 278.006 397.404C275.876 397.286 274.299 397.228 273.274 397.228C273.548 397.228 272.051 397.425 268.778 397.818Z" fill="white"/>
<path d="M303.323 388.946L316.041 387.999L315.568 399.238C315.568 410.517 316.06 420.969 317.047 430.589L304.211 432.422V428.697C304.211 413.238 303.915 399.987 303.323 388.946Z" fill="white"/>
<path d="M339.938 388.118C344.63 388.118 348.219 388.433 350.703 389.063L350.763 398.823C348.475 398.194 345.381 397.877 341.475 397.877C338.359 397.877 336.279 398.379 335.235 399.382C334.19 400.386 333.667 402.363 333.667 405.313C333.667 411.017 334.742 415.138 336.891 417.674C339.041 420.211 342.501 421.479 347.273 421.479C348.534 421.479 349.875 421.303 351.295 420.947L351.355 430.475C349.422 430.945 347.43 431.181 345.381 431.181C337.847 431.181 332.07 428.829 328.049 424.122C324.026 419.417 322.014 412.693 322.014 403.949C322.014 397.49 323.454 393.158 326.333 390.953C328.777 389.063 333.313 388.118 339.938 388.118Z" fill="white"/>
<path d="M397.789 388.118C402.481 388.118 406.07 388.433 408.554 389.063L408.614 398.823C406.326 398.194 403.232 397.877 399.326 397.877C396.21 397.877 394.13 398.379 393.086 399.382C392.041 400.386 391.518 402.363 391.518 405.313C391.518 411.017 392.593 415.138 394.742 417.674C396.892 420.211 400.352 421.479 405.124 421.479C406.385 421.479 407.726 421.303 409.146 420.947L409.206 430.475C407.273 430.945 405.281 431.181 403.232 431.181C395.698 431.181 389.921 428.829 385.9 424.122C381.877 419.417 379.865 412.693 379.865 403.949C379.865 397.49 381.305 393.158 384.184 390.953C386.628 389.063 391.164 388.118 397.789 388.118Z" fill="white"/>
<path d="M434.58 397.463C431.347 397.463 428.98 398.194 427.482 399.652C425.983 401.111 425.235 403.458 425.235 406.691C425.235 410.044 425.964 413.336 427.423 416.57C429.236 420.554 431.603 422.546 434.522 422.546C437.044 422.546 439.007 421.431 440.407 419.203C441.807 416.975 442.507 414.027 442.507 410.359C442.507 401.763 439.864 397.463 434.58 397.463ZM435.054 387.999V388.058C440.93 388.058 445.632 390.07 449.162 394.092C452.691 398.114 454.456 403.359 454.456 409.826C454.456 416.098 452.612 421.323 448.926 425.502C445.238 429.683 440.535 431.772 434.818 431.772C427.838 431.772 422.375 428.991 418.432 423.432C414.962 418.543 413.226 412.45 413.226 405.154C413.226 399.632 415.128 395.392 418.935 392.435C422.74 389.478 428.112 387.999 435.054 387.999Z" fill="white"/>
<path d="M470.898 400.598H470.84L470.486 423.904V433.132L460.017 430.648C460.845 421.46 461.26 412.765 461.26 404.562C461.26 399.041 461.041 393.54 460.608 388.058L475.337 389.241C476.204 392.198 478.157 397.562 481.193 405.332C483.834 412.074 485.589 417.516 486.458 421.657C487.482 417.32 489.414 411.818 492.256 405.153C495.884 396.714 498.13 391.312 498.998 388.946L512.722 389.833L512.545 396.576V415.741C512.545 417.674 512.701 420.14 513.018 423.136L513.788 430.589L502.43 433.369C502.43 432.698 502.36 431.062 502.222 428.46C502.084 425.857 502.016 424.122 502.016 423.254V399.297C497.662 411.444 494.466 421.834 492.428 430.47L479.605 431.773C477.642 423.216 474.741 412.824 470.898 400.598Z" fill="white"/>
<path d="M519.465 389.182L546.084 390.602L545.433 398.114C542.553 397.918 538.236 397.7 532.479 397.463V405.035C535.475 404.562 539.971 403.971 545.965 403.262L545.609 411.896C545.057 411.896 540.68 412.291 532.479 413.08V421.539L546.675 419.587L547.799 428.756L520.708 430.59C520.708 429.722 520.756 427.779 520.855 424.763C520.952 421.746 521.003 419.804 521.003 418.935V405.39C521.003 399.711 520.491 394.31 519.465 389.182Z" fill="white"/>
<path d="M566.196 421.303C567.294 421.579 568.236 421.718 569.021 421.718C573.301 421.718 576.245 419.711 577.854 415.698C578.876 413.142 579.388 409.306 579.388 404.191C579.388 401.714 578.896 400.022 577.914 399.116C576.933 398.212 574.949 397.76 571.966 397.76H569.905C568.452 397.76 567.216 397.858 566.196 398.054V421.303ZM553.774 430.352H553.833C554.581 424.319 554.956 417.103 554.956 408.703C554.956 404.956 554.936 402.116 554.897 400.184C554.857 398.608 554.661 394.942 554.305 389.182H561.937C563.001 389.182 565.426 389.094 569.213 388.916C572.998 388.739 575.424 388.65 576.488 388.65C580.589 388.65 584.069 390.067 586.929 392.903C589.786 395.739 591.217 399.204 591.217 403.299C591.217 412.87 589.698 419.682 586.662 423.738C583.152 428.424 576.764 430.767 567.497 430.767C566.47 430.767 564.173 430.698 560.606 430.559C557.036 430.423 554.758 430.352 553.774 430.352Z" fill="white"/>
<path d="M617.599 397.463C614.365 397.463 611.999 398.194 610.501 399.652C609.002 401.111 608.253 403.458 608.253 406.691C608.253 410.044 608.982 413.336 610.442 416.57C612.254 420.554 614.622 422.546 617.539 422.546C620.063 422.546 622.025 421.431 623.426 419.203C624.825 416.975 625.525 414.027 625.525 410.359C625.525 401.763 622.883 397.463 617.599 397.463ZM618.071 387.999V388.058C623.949 388.058 628.65 390.07 632.181 394.092C635.709 398.114 637.474 403.359 637.474 409.826C637.474 416.098 635.63 421.323 631.943 425.502C628.255 429.683 623.554 431.772 617.835 431.772C610.855 431.772 605.394 428.991 601.45 423.432C597.979 418.543 596.245 412.45 596.245 405.154C596.245 399.632 598.146 395.392 601.954 392.435C605.758 389.478 611.13 387.999 618.071 387.999Z" fill="white"/>
<path d="M658.118 396.044C656.975 396.044 655.87 396.162 654.806 396.4V407.342H656.047C657.192 407.382 657.624 407.402 657.35 407.402C659.636 407.402 661.51 406.82 662.97 405.656C664.427 404.493 665.158 402.945 665.158 401.013C665.158 397.7 662.811 396.044 658.118 396.044ZM642.502 389.182H644.867H646.288H647.294C648.436 389.182 651.059 389.073 655.16 388.856C659.262 388.64 661.904 388.532 663.088 388.532C666.32 388.532 669.278 389.754 671.96 392.198C674.642 394.644 675.982 397.444 675.982 400.598C675.982 403.281 675.095 405.677 673.32 407.786C671.546 409.896 669.358 411.228 666.755 411.778C670.186 418.758 674.66 425.029 680.183 430.589L671.014 437.333C662.97 427.749 657.646 419.37 655.042 412.192V419.233C655.042 423.017 655.16 426.804 655.398 430.589L643.092 433.369C643.487 429.741 643.686 426.488 643.686 423.609V401.308C643.686 398.114 643.291 394.072 642.502 389.182Z" fill="white"/>
<path d="M707.57 389.182L720.702 387.763C720.67 388.472 720.532 390.346 720.287 393.382C720.011 395.591 719.874 397.484 719.874 399.06V422.248C725.788 421.618 730.186 420.947 733.064 420.238L734.011 428.932L708.042 430.531C708.319 424.931 708.456 420.731 708.456 417.931V409.708V404.918V401.487C708.456 400.894 708.16 396.794 707.57 389.182Z" fill="white"/>
<path d="M758.263 396.753C757.949 398.135 757.415 400.639 756.667 404.267C756.233 406.277 755.818 408.171 755.425 409.945L761.517 410.892C759.901 405.725 758.815 401.012 758.263 396.753ZM751.757 389.063L765.067 390.009C765.973 391.745 766.762 393.995 767.433 396.753L769.207 403.733C772.559 414.54 776.069 423.491 779.735 430.589L768.379 433.547C765.934 427.435 764.278 422.092 763.41 417.516L753.769 416.569C751.994 421.46 751.047 424.141 750.929 424.615C749.943 427.376 749.234 430.116 748.799 432.837L737.974 430.531C745.27 413.219 749.863 399.396 751.757 389.063Z" fill="white"/>
<path d="M781.57 397.818L782.22 389.181H791.271C799.828 389.181 806.258 389.104 810.555 388.946L810.97 397.346L802.038 397.581V420.296C802.038 421.441 802.234 424.872 802.628 430.589L789.97 432.482C790.6 428.058 790.916 422.608 790.916 416.128C790.916 412.732 790.896 409.612 790.858 406.766C790.778 402.026 790.759 398.905 790.799 397.404C788.668 397.286 787.091 397.228 786.066 397.228C786.342 397.228 784.843 397.425 781.57 397.818Z" fill="white"/>
<path d="M816.115 388.946L828.832 387.999L828.36 399.238C828.36 410.517 828.852 420.969 829.839 430.589L817.003 432.422V428.697C817.003 413.238 816.706 399.987 816.115 388.946Z" fill="white"/>
<path d="M835.871 390.365L846.578 387.585L856.042 403.143C859.473 408.9 862.214 414.283 864.265 419.291C863.398 414.599 862.963 406.849 862.963 396.044C862.963 392.297 862.923 389.477 862.845 387.585L873.315 389.181C872.725 395.532 872.427 402.512 872.427 410.121C872.427 415.525 872.566 422.032 872.842 429.643L861.247 431.655L853.085 417.221C850.206 412.015 847.799 407.067 845.869 402.373C846.183 413.297 846.677 423.708 847.346 433.607L835.515 430.589C836.029 423.531 836.286 416.451 836.286 409.353C836.286 404.069 836.146 397.74 835.871 390.365Z" fill="white"/>
<path d="M894.314 397.463C891.079 397.463 888.714 398.194 887.215 399.652C885.717 401.111 884.967 403.458 884.967 406.691C884.967 410.044 885.697 413.336 887.157 416.57C888.969 420.554 891.337 422.546 894.254 422.546C896.778 422.546 898.739 421.431 900.141 419.203C901.539 416.975 902.239 414.027 902.239 410.359C902.239 401.763 899.598 397.463 894.314 397.463ZM894.786 387.999V388.058C900.663 388.058 905.365 390.07 908.895 394.092C912.423 398.114 914.189 403.359 914.189 409.826C914.189 416.098 912.345 421.323 908.658 425.502C904.97 429.683 900.269 431.772 894.55 431.772C887.57 431.772 882.109 428.991 878.165 423.432C874.694 418.543 872.959 412.45 872.959 405.154C872.959 399.632 874.861 395.392 878.669 392.435C882.473 389.478 887.845 387.999 894.786 387.999Z" fill="white"/>
</svg>
