<svg width="1440" height="23" viewBox="0 0 1440 23" fill="none" xmlns="http://www.w3.org/2000/svg">
<path d="M1417.5 23L1395 0.499878L1372.5 23L1350 0.499878L1327.5 23L1305 0.499878L1282.5 23L1260 0.499878L1237.5 23L1215 0.499878L1192.5 23L1170 0.499878L1147.5 23L1125 0.499878L1102.5 23L1080 0.499878L1057.5 23L1035 0.499878L1012.5 23L990 0.499878L967.5 23L945 0.499878L922.5 23L900 0.499878L877.5 23L855 0.499878L832.5 23L810 0.499878L787.5 23L765 0.499878L742.5 23L720 0.499878L697.5 23L675 0.499878L652.5 23L630 0.499878L607.5 23L585 0.499878L562.5 23L540 0.499878L517.5 23L495 0.499878L472.5 23L450 0.499878L427.5 23L405 0.499878L382.5 23L360 0.499878L337.5 23L315 0.499878L292.5 23L270 0.499878L247.5 23L225 0.499878L202.5 23L180 0.499878L157.5 23L135 0.499878L112.5 23L89.9998 0.499878L67.5 23L44.9998 0.499878L22.5 23L-0.000244141 0.499878L0.499512 0H44.5L44.9998 0.499878L45.4995 0H89.5L89.9998 0.499878L90.4995 0H134.5L135 0.499878L135.5 0H179.5L180 0.499878L180.5 0H224.5L225 0.499878L225.5 0H269.5L270 0.499878L270.5 0H314.5L315 0.499878L315.5 0H359.5L360 0.499878L360.5 0H404.5L405 0.499878L405.5 0H449.5L450 0.499878L450.5 0H494.5L495 0.499878L495.5 0H539.5L540 0.499878L540.5 0H584.5L585 0.499878L585.5 0H629.5L630 0.499878L630.5 0H674.5L675 0.499878L675.5 0H719.5L720 0.499878L720.5 0H764.5L765 0.499878L765.5 0H809.5L810 0.499878L810.5 0H854.5L855 0.499878L855.5 0H899.5L900 0.499878L900.5 0H944.5L945 0.499878L945.5 0H989.5L990 0.499878L990.5 0H1034.5L1035 0.499878L1035.5 0H1079.5L1080 0.499878L1080.5 0H1124.5L1125 0.499878L1125.5 0H1169.5L1170 0.499878L1170.5 0H1214.5L1215 0.499878L1215.5 0H1259.5L1260 0.499878L1260.5 0H1304.5L1305 0.499878L1305.5 0H1349.5L1350 0.499878L1350.5 0H1394.5L1395 0.499878L1395.5 0H1439.5L1440 0.499878L1417.5 23Z" fill="white"/>
</svg>
