<svg width="1440" height="23" viewBox="0 0 1440 23" fill="none" xmlns="http://www.w3.org/2000/svg">
<path d="M22.5001 0L45.0002 22.5001L67.5001 0L90.0002 22.5001L112.5 0L135 22.5001L157.5 0L180 22.5001L202.5 0L225 22.5001L247.5 0L270 22.5001L292.5 0L315 22.5001L337.5 0L360 22.5001L382.5 0L405 22.5001L427.5 0L450 22.5001L472.5 0L495 22.5001L517.5 0L540 22.5001L562.5 0L585 22.5001L607.5 0L630 22.5001L652.5 0L675 22.5001L697.5 0L720 22.5001L742.5 0L765 22.5001L787.5 0L810 22.5001L832.5 0L855 22.5001L877.5 0L900 22.5001L922.5 0L945 22.5001L967.5 0L990 22.5001L1012.5 0L1035 22.5001L1057.5 0L1080 22.5001L1102.5 0L1125 22.5001L1147.5 0L1170 22.5001L1192.5 0L1215 22.5001L1237.5 0L1260 22.5001L1282.5 0L1305 22.5001L1327.5 0L1350 22.5001L1372.5 0L1395 22.5001L1417.5 0L1440 22.5001L1439.5 23H1395.5L1395 22.5001L1394.5 23H1350.5L1350 22.5001L1349.5 23H1305.5L1305 22.5001L1304.5 23H1260.5L1260 22.5001L1259.5 23H1215.5L1215 22.5001L1214.5 23H1170.5L1170 22.5001L1169.5 23H1125.5L1125 22.5001L1124.5 23H1080.5L1080 22.5001L1079.5 23H1035.5L1035 22.5001L1034.5 23H990.5L990 22.5001L989.5 23H945.5L945 22.5001L944.5 23H900.5L900 22.5001L899.5 23H855.5L855 22.5001L854.5 23H810.5L810 22.5001L809.5 23H765.5L765 22.5001L764.5 23H720.5L720 22.5001L719.5 23H675.5L675 22.5001L674.5 23H630.5L630 22.5001L629.5 23H585.5L585 22.5001L584.5 23H540.5L540 22.5001L539.5 23H495.5L495 22.5001L494.5 23H450.5L450 22.5001L449.5 23H405.5L405 22.5001L404.5 23H360.5L360 22.5001L359.5 23H315.5L315 22.5001L314.5 23H270.5L270 22.5001L269.5 23H225.5L225 22.5001L224.5 23H180.5L180 22.5001L179.5 23H135.5L135 22.5001L134.5 23H90.5001L90.0002 22.5001L89.5004 23H45.5001L45.0002 22.5001L44.5004 23H0.499878L0 22.5001L22.5001 0Z" fill="#F7FAFC"/>
</svg>
