<svg width="1440" height="1249" viewBox="0 0 1440 1249" fill="none" xmlns="http://www.w3.org/2000/svg">
<path fill-rule="evenodd" clip-rule="evenodd" d="M45.0003 22.5001L22.5001 0L0 22.5001L0.499878 23H0V1227H0.499878L22.5001 1249L44.5004 1227H45.5001L67.5001 1249L89.5004 1227H90.5001L112.5 1249L134.5 1227H135.5L157.5 1249L179.5 1227H180.5L202.5 1249L224.5 1227H225.5L247.5 1249L269.5 1227H270.5L292.5 1249L314.5 1227H315.5L337.5 1249L359.5 1227H360.5L382.5 1249L404.5 1227H405.5L427.5 1249L449.5 1227H450.5L472.5 1249L494.5 1227H495.5L517.5 1249L539.5 1227H540.5L562.5 1249L584.5 1227H585.5L607.5 1249L629.5 1227H630.5L652.5 1249L674.5 1227H675.5L697.5 1249L719.5 1227H720.5L742.5 1249L764.5 1227H765.5L787.5 1249L809.5 1227H810.5L832.5 1249L854.5 1227H855.5L877.5 1249L899.5 1227H900.5L922.5 1249L944.5 1227H945.5L967.5 1249L989.5 1227H990.5L1012.5 1249L1034.5 1227H1035.5L1057.5 1249L1079.5 1227H1080.5L1102.5 1249L1124.5 1227H1125.5L1147.5 1249L1169.5 1227H1170.5L1192.5 1249L1214.5 1227H1215.5L1237.5 1249L1259.5 1227H1260.5L1282.5 1249L1304.5 1227H1305.5L1327.5 1249L1349.5 1227H1350.5L1372.5 1249L1394.5 1227H1395.5L1417.5 1249L1439.5 1227H1440V23H1439.5L1440 22.5001L1417.5 0L1395 22.5001L1372.5 0L1350 22.5001L1327.5 0L1305 22.5001L1282.5 0L1260 22.5001L1237.5 0L1215 22.5001L1192.5 0L1170 22.5001L1147.5 0L1125 22.5001L1102.5 0L1080 22.5001L1057.5 0L1035 22.5001L1012.5 0L990 22.5001L967.5 0L945 22.5001L922.5 0L900 22.5001L877.5 0L855 22.5001L832.5 0L810 22.5001L787.5 0L765 22.5001L742.5 0L720 22.5001L697.5 0L675 22.5001L652.5 0L630 22.5001L607.5 0L585 22.5001L562.5 0L540 22.5001L517.5 0L495 22.5001L472.5 0L450 22.5001L427.5 0L405 22.5001L382.5 0L360 22.5001L337.5 0L315 22.5001L292.5 0L270 22.5001L247.5 0L225 22.5001L202.5 0L180 22.5001L157.5 0L135 22.5001L112.5 0L90.0003 22.5001L67.5001 0L45.0003 22.5001ZM45.5001 23L45.0003 22.5001L44.5004 23H45.5001ZM89.5004 23L90.0003 22.5001L90.5001 23H89.5004ZM134.5 23L135 22.5001L135.5 23H134.5ZM179.5 23L180 22.5001L180.5 23H179.5ZM224.5 23L225 22.5001L225.5 23H224.5ZM269.5 23L270 22.5001L270.5 23H269.5ZM314.5 23L315 22.5001L315.5 23H314.5ZM359.5 23L360 22.5001L360.5 23H359.5ZM404.5 23L405 22.5001L405.5 23H404.5ZM449.5 23L450 22.5001L450.5 23H449.5ZM494.5 23L495 22.5001L495.5 23H494.5ZM539.5 23L540 22.5001L540.5 23H539.5ZM584.5 23L585 22.5001L585.5 23H584.5ZM629.5 23L630 22.5001L630.5 23H629.5ZM674.5 23L675 22.5001L675.5 23H674.5ZM719.5 23L720 22.5001L720.5 23H719.5ZM764.5 23L765 22.5001L765.5 23H764.5ZM809.5 23L810 22.5001L810.5 23H809.5ZM854.5 23L855 22.5001L855.5 23H854.5ZM899.5 23L900 22.5001L900.5 23H899.5ZM944.5 23L945 22.5001L945.5 23H944.5ZM989.5 23L990 22.5001L990.5 23H989.5ZM1034.5 23L1035 22.5001L1035.5 23H1034.5ZM1079.5 23L1080 22.5001L1080.5 23H1079.5ZM1124.5 23L1125 22.5001L1125.5 23H1124.5ZM1169.5 23L1170 22.5001L1170.5 23H1169.5ZM1214.5 23L1215 22.5001L1215.5 23H1214.5ZM1259.5 23L1260 22.5001L1260.5 23H1259.5ZM1304.5 23L1305 22.5001L1305.5 23H1304.5ZM1349.5 23L1350 22.5001L1350.5 23H1349.5ZM1394.5 23L1395 22.5001L1395.5 23H1394.5Z" fill="black"/>
</svg>
