<?xml version="1.0" encoding="UTF-8" standalone="no"?>
<svg
   xmlns:dc="http://purl.org/dc/elements/1.1/"
   xmlns:cc="http://creativecommons.org/ns#"
   xmlns:rdf="http://www.w3.org/1999/02/22-rdf-syntax-ns#"
   xmlns:svg="http://www.w3.org/2000/svg"
   xmlns="http://www.w3.org/2000/svg"
   xmlns:sodipodi="http://sodipodi.sourceforge.net/DTD/sodipodi-0.dtd"
   xmlns:inkscape="http://www.inkscape.org/namespaces/inkscape"
   inkscape:version="1.0 (4035a4fb49, 2020-05-01)"
   sodipodi:docname="logo.svg"
   viewBox="0 0 944.37054 483.74411"
   height="483.74411"
   width="944.37054"
   xml:space="preserve"
   id="svg2"
   version="1.1"><metadata
     id="metadata8"><rdf:RDF><cc:Work
         rdf:about=""><dc:format>image/svg+xml</dc:format><dc:type
           rdf:resource="http://purl.org/dc/dcmitype/StillImage" /><dc:title></dc:title></cc:Work></rdf:RDF></metadata><defs
     id="defs6"><clipPath
       id="clipPath18"
       clipPathUnits="userSpaceOnUse"><path
         id="path16"
         d="M 0,630 H 810 V 0 H 0 Z" /></clipPath></defs><sodipodi:namedview
     inkscape:current-layer="g10"
     inkscape:window-maximized="0"
     inkscape:window-y="35"
     inkscape:window-x="1928"
     inkscape:cy="238.50851"
     inkscape:cx="476.46137"
     inkscape:zoom="1.3418873"
     showgrid="false"
     id="namedview4"
     inkscape:window-height="1360"
     inkscape:window-width="2544"
     inkscape:pageshadow="2"
     inkscape:pageopacity="0"
     guidetolerance="10"
     gridtolerance="10"
     objecttolerance="10"
     borderopacity="1"
     bordercolor="#666666"
     pagecolor="#ffffff" /><g
     transform="matrix(1.3333333,0,0,-1.3333333,-63.538634,658.50851)"
     inkscape:label="logo final"
     inkscape:groupmode="layer"
     id="g10"><g
       id="g12"><g
         clip-path="url(#clipPath18)"
         id="g14"><g
           transform="translate(235.752,330.8887)"
           id="g20"><path
             id="path22"
             style="fill:#a9cf37;fill-opacity:1;fill-rule:nonzero;stroke:none"
             d="m 0,0 c 0,0 9.507,-15.393 24.898,-23.539 0,0 60.207,34.405 17.201,84.652 0,0 -23.929,34.226 -74.94,0.069 -51.01,-34.158 -37.303,-155.731 53.482,-157.754 90.787,-2.023 106.518,89.662 106.518,89.662 0,0 7.414,56.181 -13.932,95.057 -21.35,38.875 -66.968,73.707 -133.259,74.831 -66.292,1.123 -147.67,-62.228 -153.292,-147.262 -5.622,-85.034 35.138,-146.876 69.573,-179.906 H 45.937 c 0,0 -158.824,89.952 -148.282,177.095 10.542,87.143 63.248,103.306 101.197,102.604 37.95,-0.702 92.764,-31.625 86.44,-101.198 -6.325,-69.574 -67.465,-65.356 -67.465,-65.356 0,0 -44.976,2.81 -47.085,48.489 0,0 -0.702,42.167 40.759,40.057 0,0 21.083,-6.323 14.759,-23.19 C 19.936,-2.556 14.5,-1.664 0,0" /></g><g
           transform="translate(68.0664,230.4355)"
           id="g24"><path
             id="path26"
             style="fill:#bf1e2d;fill-opacity:1;fill-rule:nonzero;stroke:none"
             d="m 0,0 c -0.591,0 -1.208,0.052 -1.835,0.152 -3.529,0.564 -5.632,2.435 -6.82,4.6 C -8.727,4.748 -8.803,4.746 -8.883,4.746 h -0.828 l -0.539,0.629 c -0.542,0.629 -0.542,0.629 -0.018,4.076 l 1.526,10.031 C -5.632,39.9 14.047,121.517 17.854,137.233 L -5.69,133.622 c -0.583,-0.247 -1.943,-0.73 -3.631,-0.73 h -10e-4 c -2.045,0 -5.824,0.773 -8.146,5.945 -1.351,3.006 -1.499,5.597 -0.441,7.698 1.385,2.75 4.235,3.445 4.555,3.515 l 58.292,10.848 0.087,0.008 c 0.082,0.008 8.308,0.721 16.811,0.721 6.914,0 12.137,-0.463 15.525,-1.377 3.645,-0.984 6.035,-2.745 7.102,-5.232 1.503,-3.502 -0.346,-6.988 -0.425,-7.135 L 83.611,147.095 41.542,140.68 9.083,8.016 C 8.565,5.206 6.024,0 0,0" /></g><g
           transform="translate(129.9028,393.8662)"
           id="g28"><path
             id="path30"
             style="fill:#ffffff;fill-opacity:1;fill-rule:nonzero;stroke:none"
             d="m 0,0 c -8.582,0 -16.63,-0.698 -16.969,-0.728 l -0.173,-0.015 -0.171,-0.032 -58.151,-10.822 -0.057,-0.01 -0.055,-0.012 c -0.406,-0.089 -4.02,-0.971 -5.78,-4.466 -1.314,-2.61 -1.177,-5.722 0.407,-9.248 2.738,-6.099 7.309,-7.009 9.791,-7.009 1.814,0 3.302,0.462 4.116,0.782 l 20.673,3.172 c -5.018,-20.739 -22.974,-95.473 -25.992,-115.289 l -1.526,-10.031 -0.31,-2.043 c -0.141,-0.939 -0.336,-2.226 0.742,-3.48 l 1.08,-1.256 h 0.918 c 1.521,-2.215 3.926,-4.001 7.502,-4.573 0.719,-0.115 1.433,-0.173 2.119,-0.173 7.17,0 10.208,6.095 10.846,9.436 l 32.16,131.445 39.989,6.098 1.774,0.271 0.854,1.577 c 0.242,0.446 2.309,4.482 0.497,8.704 -1.296,3.02 -4.085,5.127 -8.289,6.262 C 12.454,-0.484 7.072,0 0,0 m 0,-3.606 c 5.572,0 11.312,-0.306 15.055,-1.316 9.466,-2.556 5.561,-9.766 5.561,-9.766 l -42.375,-6.462 -32.759,-133.89 c 0,0 -1.16,-6.587 -7.318,-6.587 -0.485,0 -1.001,0.041 -1.55,0.129 -7.512,1.2 -6.611,9.315 -6.611,9.315 0,0 -0.719,-4.698 -0.722,-4.698 -0.003,0 0.42,2.789 1.924,12.661 3.455,22.692 27.2,120.213 27.2,120.213 l -26.447,-4.057 c 0,0 -1.343,-0.672 -3.116,-0.672 -2.069,0 -4.721,0.916 -6.502,4.881 -3.307,7.362 2.856,8.713 2.856,8.713 l 58.151,10.821 c 0,0 8.13,0.715 16.653,0.715" /></g><g
           transform="translate(230.832,344.8291)"
           id="g32"><path
             id="path34"
             style="fill:#bf1e2d;fill-opacity:1;fill-rule:nonzero;stroke:none"
             d="m 0,0 c -1.282,-0.215 -3.726,-6.252 -4.961,-13.731 -0.473,-3.519 -0.571,-10.049 1.212,-12.373 0.434,-0.565 0.84,-0.683 1.145,-0.722 0.113,-0.014 0.224,-0.022 0.333,-0.022 2.394,0 4.115,3.963 5.116,11.779 l 0.047,0.361 C 3.488,-10.156 2.55,-0.68 0.006,-0.002 Z m -97.688,-89.211 c -0.343,0 -0.691,0.013 -1.042,0.037 -0.051,-10e-4 -0.114,-0.002 -0.187,-0.002 -1.279,0 -5.755,0.364 -9.649,5.057 -6.674,8.04 -7.918,23.89 -3.703,47.121 -0.444,0.205 -1.051,0.399 -1.754,0.399 -0.282,0 -0.566,-0.031 -0.851,-0.092 -0.366,-4.668 -1.949,-21.379 -6.246,-28.336 -0.515,-1.377 -2.524,-6.07 -5.957,-6.07 -0.774,0 -1.525,0.24 -2.231,0.71 -3.677,2.455 -2.584,5.35 -1.997,6.904 0.139,0.369 0.271,0.717 0.339,1.013 0.524,2.268 3.672,23.894 3.082,32.11 -1.669,0.724 -4.575,2.417 -5.389,5.646 -0.897,3.561 1.061,7.691 5.818,12.275 l 0.107,0.095 c 0.41,0.336 4.121,3.286 8.073,3.286 2.396,0 4.395,-1.088 5.786,-3.146 0.528,-0.649 2.293,-3.206 1.045,-7.14 l 5.287,-0.083 c 1.019,2.392 3.719,7.209 8.933,7.209 0.841,0 1.712,-0.133 2.588,-0.394 2.347,-0.698 5.572,-1.956 6.47,-4.796 0.922,-2.911 -1.083,-6.112 -3.252,-8.897 -3.562,-11.884 -10.527,-42.627 -1.979,-48.695 0.045,-0.004 0.101,-0.007 0.163,-0.007 1.535,0 3.015,1.587 4.059,4.354 0.483,1.277 1.004,2.4 1.556,3.59 2.42,5.212 5.432,11.7 7.502,37.391 0.073,2.435 1.052,24.578 11.522,24.578 0.405,0 0.822,-0.035 1.239,-0.105 4.023,-0.67 6.639,-2.218 7.775,-4.603 1.225,-2.57 0.222,-5.165 -0.188,-6.032 -0.601,-2.99 -6.726,-33.917 -5.341,-44.71 l 0.014,-0.114 v -0.115 c 0,-0.071 0.125,-7.366 3.76,-7.989 0.045,-0.008 0.091,-0.011 0.137,-0.011 h 10e-4 c 3.073,10e-4 8.653,12.231 9.936,24.271 1.15,10.794 4.267,35.79 4.498,37.642 0.014,0.681 0.201,3.092 2.107,5.043 1.565,1.602 3.803,2.414 6.652,2.414 0.462,0 0.952,-0.021 1.47,-0.068 3.155,-0.281 5.408,-1.325 6.698,-3.104 1.75,-2.414 1.087,-5.278 0.837,-6.355 -0.014,-0.065 -0.028,-0.12 -0.038,-0.167 -0.018,-0.229 -0.086,-0.76 -0.338,-2.697 -0.989,-7.584 -3.999,-30.664 -3.273,-37.208 1.128,-10.16 2.475,-13.238 3.461,-13.944 1.835,0.623 7.459,8.262 8.415,18.13 -0.174,2.783 -1.974,35.054 6.661,52.174 0.225,0.426 5.209,9.67 12.706,9.67 1.489,0 2.965,-0.366 4.397,-1.09 0.622,0.087 1.627,0.195 2.811,0.195 5.402,0 9.211,-2.16 10.726,-6.081 2.687,-6.954 3.77,-24.952 -3.637,-36.063 -4.726,-7.087 -8.511,-12.102 -14.204,-12.102 -1.257,0 -2.559,0.239 -3.983,0.741 0.138,-5.163 1.096,-13.765 4.592,-17.442 1.063,-1.119 2.273,-1.691 3.696,-1.747 0.838,0.161 5.738,1.272 8.708,5.664 l 0.614,0.905 c 3.86,5.678 11.044,16.246 13.684,30.276 0.143,0.668 1.43,6.11 5.239,6.11 0.443,0 0.892,-0.079 1.335,-0.234 4.308,-1.508 3.407,-7.88 3.289,-8.601 -0.153,-1.348 -4.32,-35.029 -30.829,-44.952 -0.58,-0.269 -3.615,-1.587 -7.526,-1.587 -3.352,0 -7.925,0.986 -11.918,5.287 -2.099,-4.368 -7.05,-11.983 -16.099,-12.105 l -0.212,-0.002 c -8.549,0 -13.095,6.741 -15.224,13.461 -2.57,-8.196 -7.99,-19.326 -18.471,-19.326 -0.143,0 -0.591,0.011 -0.591,0.011 l -0.158,0.033 c -0.45,0.095 -9.184,2.004 -12.821,8.211 -5.076,-10.489 -11.356,-15.801 -18.7,-15.801" /></g><g
           transform="translate(227.6582,330.854)"
           id="g36"><path
             id="path38"
             style="fill:#ffffff;fill-opacity:1;fill-rule:nonzero;stroke:none"
             d="M 0,0 C 0.726,4.346 2.079,8.94 3.211,11.178 4.213,8.62 4.718,2.868 4.278,-0.497 L 4.23,-0.865 c -1.271,-9.927 -3.307,-10.204 -3.327,-10.204 -0.008,0 -0.017,0 -0.026,0 C -0.187,-10.031 -0.62,-4.643 0,0 M 0.769,32.806 H 0.767 c -8.425,0 -13.708,-9.512 -14.283,-10.596 l -0.016,-0.032 -0.017,-0.032 c -8.713,-17.275 -7.08,-49.279 -6.859,-52.953 -0.734,-7.192 -4.094,-13.054 -6.175,-15.435 -0.583,1.556 -1.363,4.772 -2.1,11.413 -0.465,4.2 0.634,16.573 3.268,36.777 0.212,1.622 0.299,2.295 0.335,2.643 l 0.011,0.047 c 0.272,1.173 1.097,4.741 -1.135,7.82 -1.609,2.22 -4.299,3.513 -7.997,3.843 -0.557,0.05 -1.106,0.074 -1.631,0.074 -4.175,0.001 -6.623,-1.607 -7.94,-2.956 -2.244,-2.297 -2.573,-5.128 -2.616,-6.15 -0.291,-2.331 -3.354,-26.914 -4.493,-37.605 -1.124,-10.543 -5.795,-21.253 -8.192,-22.607 -1.235,0.553 -2.031,3.903 -2.046,6.156 l -10e-4,0.219 -0.028,0.229 c -1.153,8.987 3.335,34.316 5.277,43.912 0.574,1.29 1.56,4.294 0.092,7.376 -1.405,2.947 -4.469,4.834 -9.108,5.606 -0.513,0.086 -1.03,0.129 -1.534,0.129 -11.837,0.001 -13.177,-21.707 -13.327,-26.324 -2.044,-25.295 -4.976,-31.612 -7.332,-36.69 -0.566,-1.219 -1.102,-2.372 -1.608,-3.71 -0.69,-1.829 -1.464,-2.747 -1.993,-3.06 -1.628,1.728 -4.289,7.243 -1.716,24.333 1.486,9.87 4.079,19.154 4.791,21.608 2.372,3.094 4.47,6.68 3.334,10.27 -1.158,3.658 -4.936,5.165 -7.676,5.981 -1.042,0.31 -2.086,0.468 -3.101,0.468 h -0.002 c -5.088,0 -8.385,-3.797 -10.095,-7.19 l -1.931,0.03 c 0.28,2.94 -0.767,5.228 -1.822,6.495 -1.718,2.469 -4.266,3.825 -7.202,3.825 -4.579,0.001 -8.755,-3.317 -9.216,-3.695 l -0.112,-0.091 -0.103,-0.1 c -5.257,-5.064 -7.382,-9.779 -6.316,-14.013 0.848,-3.364 3.41,-5.325 5.39,-6.373 0.251,-8.471 -2.615,-28.439 -3.091,-30.537 -0.041,-0.178 -0.157,-0.485 -0.269,-0.782 -0.598,-1.583 -2.186,-5.789 2.682,-9.04 0.994,-0.664 2.112,-1.013 3.233,-1.013 4.408,0 6.788,5.002 7.585,7.079 1.209,2.012 2.206,4.693 3.024,7.635 -0.318,-12.404 1.856,-21.474 6.514,-27.086 4.396,-5.296 9.559,-5.708 11.037,-5.708 0.053,0 0.102,0.001 0.147,0.001 0.361,-0.024 0.724,-0.036 1.081,-0.036 7.439,0 13.808,4.778 18.987,14.222 4.539,-4.93 11.739,-6.505 12.165,-6.594 l 0.314,-0.066 0.32,-0.009 c 0.162,-0.005 0.325,-0.008 0.484,-0.008 9.663,0 15.351,8.327 18.558,16.121 2.794,-5.585 7.536,-10.254 15.138,-10.254 l 0.236,0.001 c 8.594,0.116 13.802,6.244 16.544,10.964 3.953,-3.326 8.211,-4.147 11.449,-4.147 4.154,0 7.364,1.333 8.225,1.727 27.075,10.191 31.636,44.031 31.923,46.409 0.615,3.929 -0.192,9.007 -4.487,10.51 -0.634,0.222 -1.284,0.335 -1.93,0.335 -3.962,0 -6.21,-3.866 -6.993,-7.484 l -0.01,-0.047 -0.009,-0.048 c -2.57,-13.661 -9.617,-24.027 -13.402,-29.596 l -0.618,-0.91 c -2.41,-3.565 -6.3,-4.632 -7.334,-4.859 -0.866,0.077 -1.575,0.447 -2.266,1.174 -2.477,2.603 -3.636,8.667 -3.994,13.837 0.705,-0.121 1.393,-0.18 2.075,-0.18 6.576,0 10.828,5.593 15.705,12.904 7.752,11.63 6.627,30.447 3.818,37.714 -1.801,4.665 -6.207,7.234 -12.407,7.234 -0.983,0 -1.851,-0.067 -2.513,-0.142 -1.525,0.689 -3.099,1.037 -4.694,1.037 m 0.134,-47.482 c 5.375,0 6.516,10.369 6.951,13.711 0.452,3.456 0.299,15.479 -4.209,16.68 -0.16,0.043 -0.317,0.063 -0.472,0.063 -4.222,-0.001 -6.739,-15.24 -6.739,-15.24 0,0 -1.955,-14.424 3.906,-15.177 0.193,-0.025 0.38,-0.037 0.563,-0.037 M 0.768,29.2 c 1.292,0 2.659,-0.344 4.079,-1.165 0,0 1.328,0.27 3.129,0.27 3.044,0 7.439,-0.773 9.044,-4.928 2.555,-6.612 3.457,-24.044 -3.456,-34.413 -4.998,-7.495 -8.267,-11.298 -12.704,-11.298 -1.701,0 -3.573,0.558 -5.78,1.683 0,0 -0.9,-23.595 10.218,-23.742 0,0 6.311,0.902 10.07,6.461 3.757,5.559 11.719,16.678 14.575,31.858 0,0 1.004,4.639 3.468,4.639 0.233,0 0.48,-0.041 0.739,-0.132 3.006,-1.052 2.105,-6.611 2.105,-6.611 0,0 -3.908,-33.96 -29.752,-43.577 0,0 -2.932,-1.448 -6.823,-1.448 -3.838,0 -8.609,1.41 -12.414,7.006 0,0 -4.357,-13.671 -15.628,-13.823 -0.063,-10e-4 -0.124,-10e-4 -0.187,-10e-4 -11.12,0 -14.69,13.415 -14.987,20.437 0,0 -3.844,-26.303 -18.709,-26.303 -0.124,0 -0.251,0.002 -0.377,0.006 0,0 -12.172,2.554 -12.921,11.423 -0.296,0 -6.295,-18.974 -18.972,-18.974 -0.333,0 -0.673,0.013 -1.015,0.04 0,0 -0.075,-0.006 -0.213,-0.006 -2.212,0 -20.69,1.469 -11.358,51.246 0,0 -1.497,1.331 -3.749,1.331 -0.775,0 -1.639,-0.157 -2.562,-0.581 0,0 -1.355,-21.335 -6.163,-28.852 0,0 -1.798,-5.064 -4.328,-5.064 -0.393,0 -0.805,0.123 -1.23,0.406 -3.155,2.107 -1.351,4.061 -0.902,6.012 0.452,1.953 4.058,26.147 3.005,33.811 0,0 -12.323,3.454 0,15.326 0,0 3.508,2.877 6.929,2.877 1.585,0 3.151,-0.618 4.341,-2.426 0,0 2.704,-2.855 -0.299,-7.816 l 9.316,-0.147 c 0,0 2.167,7.23 7.693,7.229 0.644,0 1.336,-0.099 2.073,-0.319 7.065,-2.103 6.613,-5.409 2.104,-11.119 0,0 -13.224,-43.577 -1.052,-51.24 0,0 0.331,-0.11 0.864,-0.11 1.333,0 3.924,0.69 5.747,5.519 2.556,6.762 6.613,9.767 9.168,41.473 0,0 0.701,22.92 9.725,22.92 0.304,0 0.618,-0.026 0.942,-0.08 9.918,-1.652 6.164,-8.265 6.164,-8.265 0,0 -6.914,-33.812 -5.41,-45.531 0,0 0,-8.865 5.258,-9.766 0.147,-0.025 0.295,-0.038 0.443,-0.038 5.132,0 10.561,14.93 11.729,25.884 1.201,11.269 4.508,37.716 4.508,37.716 0,0 -0.136,5.772 6.955,5.771 0.412,0 0.849,-0.019 1.311,-0.061 8.414,-0.75 5.86,-7.061 5.86,-7.663 0,-0.601 -4.506,-32.157 -3.606,-40.271 0.9,-8.114 2.103,-14.276 4.656,-15.478 0.146,-0.068 0.306,-0.101 0.48,-0.101 2.878,0 9.346,9.166 10.34,19.936 0,0 -2.254,34.109 6.462,51.39 0,0 4.599,8.68 11.097,8.679" /></g><g
           transform="translate(303.0889,254.8408)"
           id="g40"><path
             id="path42"
             style="fill:#006838;fill-opacity:1;fill-rule:nonzero;stroke:none"
             d="m 0,0 8.23,122.631 c -16.024,0.925 -49.71,16.214 -51.18,16.884 l -1.815,0.828 6.723,26.609 2.81,-1.851 c 6.462,-4.257 22.194,-7.23 38.255,-7.23 10.027,0 19.668,1.138 27.88,3.291 23.984,6.285 57.325,6.466 61.048,6.466 l 3.008,-0.018 -1.987,-38.57 -2.629,0.42 c -5.325,0.852 -11.483,1.284 -18.303,1.284 -15.49,0 -30.467,-2.235 -35.814,-3.124 l 7.68,-138.181 z" /></g><g
           transform="translate(263.5527,425.6406)"
           id="g44"><path
             id="path46"
             style="fill:#ffffff;fill-opacity:1;fill-rule:nonzero;stroke:none"
             d="m 0,0 -1.648,-6.524 -5.41,-21.414 -0.978,-3.867 3.63,-1.655 c 3.545,-1.617 32.857,-14.812 49.63,-16.874 l -7.939,-118.292 -0.27,-4.026 3.923,-0.945 38.819,-9.337 6.251,-1.503 -0.357,6.419 -7.382,132.818 c 6.476,1.005 19.699,2.753 33.307,2.753 6.694,0 12.725,-0.422 17.925,-1.254 l 5.258,-0.841 0.274,5.317 1.722,33.415 0.257,4.994 -5.001,0.035 -0.524,0.001 c -3.754,0 -37.381,-0.184 -61.654,-6.545 -8.018,-2.102 -17.448,-3.213 -27.274,-3.213 -17.438,0 -31.782,3.439 -36.939,6.836 z m 131.487,-5.563 c 0.323,0 0.492,-0.001 0.492,-0.001 l -1.722,-33.415 c -5.957,0.954 -12.375,1.314 -18.681,1.314 -19.707,0 -38.32,-3.524 -38.32,-3.524 l 7.62,-137.094 -38.819,9.337 8.266,123.158 c -0.356,-0.023 -0.725,-0.034 -1.11,-0.034 -14.993,0 -51.634,16.713 -51.634,16.713 l 5.41,21.413 c 6.637,-4.372 22.419,-7.624 39.57,-7.624 9.517,0 19.456,1.001 28.486,3.369 23.569,6.176 56.081,6.388 60.442,6.388" /></g><g
           transform="translate(427.7158,324.2578)"
           id="g48"><path
             id="path50"
             style="fill:#006838;fill-opacity:1;fill-rule:nonzero;stroke:none"
             d="M 0,0 22.356,76.409 39.552,10.565 Z M 31.446,99.503 7.125,98.275 C -8.108,64.616 -57.247,-60.684 -57.247,-60.684 c 0.983,-5.158 30.712,-24.321 30.712,-24.321 1.718,7.861 15.232,47.66 15.232,47.66 l 65.599,0.493 9.584,-37.345 1.965,-0.734 c 4.665,5.648 14.738,7.613 14.738,7.613 z" /></g><g
           transform="translate(559.1563,426.9556)"
           id="g52"><path
             id="path54"
             style="fill:#006838;fill-opacity:1;fill-rule:nonzero;stroke:none"
             d="m 0,0 9.09,2.211 1.965,-11.546 c 0,0 10.071,2.948 24.078,0 L 37.836,1.475 44.959,0 41.767,-13.512 c 0,0 8.845,-6.88 12.284,-13.514 l 8.106,5.651 4.916,-8.107 -9.335,-5.65 4.177,-12.285 -8.849,-3.931 c 0,0 -12.529,25.058 -35.377,23.094 -22.847,-1.966 -39.066,-30.376 -37.834,-56.017 1.2,-24.991 11.547,-49.384 39.555,-48.401 28.008,0.983 30.709,31.447 30.709,31.447 l 8.602,4.178 4.176,-14.25 8.598,0.736 0.244,-8.108 h -8.35 c 0,0 0,-9.088 -3.196,-17.442 l 9.828,-3.931 -2.948,-7.372 -10.318,4.179 c 0,0 -3.689,-9.092 -13.023,-14.99 l 4.668,-12.036 -7.617,-5.407 -5.65,13.513 c 0,0 -9.092,-5.649 -22.112,-3.93 l -1.966,-14.249 -9.088,2.212 3.682,13.513 -14.74,4.912 -5.649,-11.301 -7.123,5.647 5.158,10.814 c 0,0 -8.601,7.121 -13.514,15.723 l -10.565,-6.389 -4.667,7.124 10.562,6.881 c 0,0 -7.367,17.935 -6.879,33.413 l -11.79,-2.21 -1.967,9.582 13.51,2.702 c 0,0 1.965,17.442 6.884,31.694 l -10.813,7.615 5.406,8.355 9.585,-7.126 c 0,0 7.12,14.252 10.315,16.461 l -8.597,11.548 6.879,5.405 8.105,-10.319 c 0,0 8.6,9.827 16.955,12.285 z" /></g><g
           transform="translate(694.6533,271.1895)"
           id="g56"><path
             id="path58"
             style="fill:#006838;fill-opacity:1;fill-rule:nonzero;stroke:none"
             d="m 0,0 c -21.372,0 -38.698,24.144 -38.698,53.928 0,29.783 17.326,53.927 38.698,53.927 21.371,0 38.696,-24.144 38.696,-53.927 C 38.696,24.144 21.371,0 0,0 m 1.596,147.657 c -32.838,0 -59.456,-36.793 -59.456,-82.182 0,-45.39 26.618,-82.184 59.456,-82.184 32.838,0 59.458,36.794 59.458,82.184 0,45.389 -26.62,82.182 -59.458,82.182" /></g><g
           transform="translate(56.374,150.4463)"
           id="g60"><path
             id="path62"
             style="fill:#bf1e2d;fill-opacity:1;fill-rule:nonzero;stroke:none"
             d="M 0,0 H 49.968 L 24.927,-19.373 Z" /></g><g
           transform="translate(106.3423,150.4463)"
           id="g64"><path
             id="path66"
             style="fill:#bf1e2d;fill-opacity:1;fill-rule:nonzero;stroke:none"
             d="M 0,0 49.967,0.004 24.926,-19.372 Z" /></g><g
           transform="translate(156.3091,150.4502)"
           id="g68"><path
             id="path70"
             style="fill:#bf1e2d;fill-opacity:1;fill-rule:nonzero;stroke:none"
             d="M 0,0 H 49.969 L 24.927,-19.376 Z" /></g><g
           transform="translate(206.2778,150.4502)"
           id="g72"><path
             id="path74"
             style="fill:#bf1e2d;fill-opacity:1;fill-rule:nonzero;stroke:none"
             d="M 0,0 49.97,0.002 24.928,-19.372 Z" /></g><g
           transform="translate(256.2476,150.4521)"
           id="g76"><path
             id="path78"
             style="fill:#bf1e2d;fill-opacity:1;fill-rule:nonzero;stroke:none"
             d="M 0,0 49.968,0.004 24.927,-19.372 Z" /></g><g
           transform="translate(306.2158,150.4561)"
           id="g80"><path
             id="path82"
             style="fill:#bf1e2d;fill-opacity:1;fill-rule:nonzero;stroke:none"
             d="M 0,0 H 49.969 L 24.928,-19.376 Z" /></g><g
           transform="translate(356.1846,150.4561)"
           id="g84"><path
             id="path86"
             style="fill:#bf1e2d;fill-opacity:1;fill-rule:nonzero;stroke:none"
             d="M 0,0 49.97,0.002 24.926,-19.376 Z" /></g><g
           transform="translate(406.1543,150.458)"
           id="g88"><path
             id="path90"
             style="fill:#bf1e2d;fill-opacity:1;fill-rule:nonzero;stroke:none"
             d="M 0,0 H 49.967 L 24.925,-19.374 Z" /></g><g
           transform="translate(456.1211,150.458)"
           id="g92"><path
             id="path94"
             style="fill:#bf1e2d;fill-opacity:1;fill-rule:nonzero;stroke:none"
             d="M 0,0 49.968,0.001 24.926,-19.372 Z" /></g><g
           transform="translate(506.0889,150.459)"
           id="g96"><path
             id="path98"
             style="fill:#bf1e2d;fill-opacity:1;fill-rule:nonzero;stroke:none"
             d="M 0,0 H 49.967 L 24.929,-19.373 Z" /></g><g
           transform="translate(556.0557,150.459)"
           id="g100"><path
             id="path102"
             style="fill:#bf1e2d;fill-opacity:1;fill-rule:nonzero;stroke:none"
             d="M 0,0 49.969,0.003 24.93,-19.372 Z" /></g><g
           transform="translate(606.0244,150.4619)"
           id="g104"><path
             id="path106"
             style="fill:#bf1e2d;fill-opacity:1;fill-rule:nonzero;stroke:none"
             d="M 0,0 H 49.97 L 24.927,-19.375 Z" /></g><g
           transform="translate(655.9941,150.4619)"
           id="g108"><path
             id="path110"
             style="fill:#bf1e2d;fill-opacity:1;fill-rule:nonzero;stroke:none"
             d="M 0,0 49.969,0.002 24.927,-19.371 Z" /></g><g
           transform="translate(705.9629,150.4639)"
           id="g112"><path
             id="path114"
             style="fill:#bf1e2d;fill-opacity:1;fill-rule:nonzero;stroke:none"
             d="M 0,0 49.969,0.002 24.928,-19.372 Z" /></g><path
           id="path116"
           style="fill:#bf1e2d;fill-opacity:1;fill-rule:nonzero;stroke:none"
           d="M 755.711,150.303 H 56.401 v 71.873 h 699.31 z" /><g
           transform="translate(88.5503,196.3164)"
           id="g118"><path
             id="path120"
             style="fill:#ffffff;fill-opacity:1;fill-rule:nonzero;stroke:none"
             d="m 0,0 c -0.237,-1.036 -0.636,-2.914 -1.198,-5.635 -0.326,-1.508 -0.636,-2.928 -0.931,-4.259 l 4.569,-0.71 C 1.227,-6.729 0.414,-3.194 0,0 M -4.88,5.768 5.102,5.058 C 5.782,3.756 6.373,2.069 6.876,0 l 1.332,-5.235 c 2.513,-8.105 5.146,-14.818 7.896,-20.142 l -8.518,-2.218 c -1.834,4.584 -3.076,8.591 -3.726,12.023 l -7.232,0.71 c -1.331,-3.668 -2.041,-5.679 -2.129,-6.034 -0.74,-2.071 -1.272,-4.126 -1.598,-6.167 l -8.118,1.73 C -9.746,-12.349 -6.3,-1.982 -4.88,5.768" /></g><g
           transform="translate(106.606,201.9951)"
           id="g122"><path
             id="path124"
             style="fill:#ffffff;fill-opacity:1;fill-rule:nonzero;stroke:none"
             d="M 0,0 9.627,1.064 C 9.539,-0.002 9.346,-1.514 9.05,-3.469 8.725,-5.542 8.563,-7.068 8.563,-8.046 v -4.933 -2.888 -2.045 c 0,-4.622 1.457,-6.933 4.372,-6.933 1.53,0 2.796,0.735 3.797,2.204 1.001,1.469 1.502,3.228 1.502,5.276 v 8.19 c 0,2.048 -0.237,5.12 -0.71,9.216 l 9.805,1.023 c -0.74,-5.39 -1.109,-8.648 -1.109,-9.773 0,-0.651 0.059,-2.178 0.177,-4.576 0.118,-2.399 0.178,-3.94 0.178,-4.62 0,-3.909 -1.265,-7.197 -3.794,-9.863 -2.529,-2.666 -5.73,-3.998 -9.605,-3.998 -4.762,0 -8.045,0.888 -9.848,2.662 -1.805,1.775 -2.707,5.013 -2.707,9.716 C 0.621,-11.077 0.414,-4.614 0,0" /></g><g
           transform="translate(137.3062,195.5176)"
           id="g126"><path
             id="path128"
             style="fill:#ffffff;fill-opacity:1;fill-rule:nonzero;stroke:none"
             d="m 0,0 0.488,6.478 h 6.788 c 6.417,0 11.239,0.058 14.463,0.176 l 0.31,-6.3 -6.699,-0.176 v -17.036 c 0,-0.859 0.148,-3.432 0.444,-7.72 L 6.3,-25.998 c 0.472,3.318 0.71,7.406 0.71,12.266 0,2.547 -0.015,4.887 -0.045,7.021 C 6.906,-3.156 6.891,-0.815 6.921,0.311 5.324,0.399 4.141,0.443 3.372,0.443 3.578,0.443 2.455,0.295 0,0" /></g><g
           transform="translate(163.2148,201.9951)"
           id="g130"><path
             id="path132"
             style="fill:#ffffff;fill-opacity:1;fill-rule:nonzero;stroke:none"
             d="M 0,0 10.16,0.71 C 10.13,0.443 9.997,-0.355 9.76,-1.687 9.583,-2.692 9.494,-3.49 9.494,-4.082 v -7.631 h 9.05 v 4.408 c 0,1.632 -0.177,4.081 -0.532,7.347 l 9.76,0.668 c -0.443,-4.947 -0.665,-7.939 -0.665,-8.975 v -14.971 c 0,-0.771 0.059,-2.149 0.178,-4.132 0.206,-2.222 0.31,-3.45 0.31,-3.688 l -9.051,-0.71 v 1.42 1.996 10.604 H 9.583 v -5.768 c 0,-2.81 0.133,-5.324 0.399,-7.542 l -9.183,-0.887 c 0.236,2.218 0.355,6.506 0.355,12.866 C 1.154,-11.121 0.769,-4.763 0,0" /></g><g
           transform="translate(195.5562,201.9951)"
           id="g134"><path
             id="path136"
             style="fill:#ffffff;fill-opacity:1;fill-rule:nonzero;stroke:none"
             d="m 0,0 19.964,-1.065 -0.488,-5.634 c -2.159,0.147 -5.398,0.31 -9.716,0.488 v -5.679 c 2.248,0.355 5.619,0.798 10.115,1.33 l -0.266,-6.476 c -0.414,0 -3.697,-0.296 -9.849,-0.888 v -6.344 l 10.648,1.464 0.843,-6.877 -20.319,-1.375 c 0,0.651 0.036,2.108 0.11,4.37 0.074,2.263 0.111,3.719 0.111,4.371 v 10.159 C 1.153,-7.897 0.769,-3.846 0,0" /></g><g
           transform="translate(221.6426,201.1074)"
           id="g138"><path
             id="path140"
             style="fill:#ffffff;fill-opacity:1;fill-rule:nonzero;stroke:none"
             d="m 0,0 8.03,2.085 7.098,-11.668 c 2.574,-4.318 4.629,-8.355 6.167,-12.111 -0.651,3.519 -0.976,9.331 -0.976,17.435 0,2.81 -0.03,4.925 -0.089,6.344 l 7.853,-1.197 c -0.444,-4.763 -0.666,-9.998 -0.666,-15.705 0,-4.053 0.104,-8.933 0.311,-14.641 l -8.695,-1.509 -6.123,10.825 c -2.159,3.905 -3.964,7.616 -5.412,11.136 0.236,-8.193 0.606,-16.001 1.109,-23.425 l -8.873,2.263 c 0.384,5.294 0.577,10.604 0.577,15.927 C 0.311,-10.278 0.207,-5.531 0,0" /></g><g
           transform="translate(249.2373,195.5176)"
           id="g142"><path
             id="path144"
             style="fill:#ffffff;fill-opacity:1;fill-rule:nonzero;stroke:none"
             d="m 0,0 0.488,6.478 h 6.788 c 6.417,0 11.239,0.058 14.463,0.176 l 0.31,-6.3 -6.699,-0.176 v -17.036 c 0,-0.859 0.148,-3.432 0.444,-7.72 L 6.3,-25.998 c 0.472,3.318 0.71,7.406 0.71,12.266 0,2.547 -0.015,4.887 -0.045,7.021 C 6.906,-3.156 6.891,-0.815 6.921,0.311 5.324,0.399 4.141,0.443 3.372,0.443 3.578,0.443 2.455,0.295 0,0" /></g><g
           transform="translate(275.146,202.1719)"
           id="g146"><path
             id="path148"
             style="fill:#ffffff;fill-opacity:1;fill-rule:nonzero;stroke:none"
             d="M 0,0 9.539,0.71 9.184,-7.719 c 0,-8.459 0.369,-16.298 1.109,-23.513 l -9.627,-1.375 v 2.794 C 0.666,-18.219 0.444,-8.281 0,0" /></g><g
           transform="translate(302.6074,202.793)"
           id="g150"><path
             id="path152"
             style="fill:#ffffff;fill-opacity:1;fill-rule:nonzero;stroke:none"
             d="m 0,0 c 3.519,0 6.211,-0.236 8.074,-0.709 l 0.045,-7.32 c -1.716,0.472 -4.037,0.71 -6.966,0.71 -2.337,0 -3.897,-0.377 -4.68,-1.129 -0.784,-0.753 -1.176,-2.236 -1.176,-4.448 0,-4.278 0.806,-7.369 2.418,-9.271 1.612,-1.903 4.207,-2.854 7.786,-2.854 0.946,0 1.952,0.132 3.017,0.399 l 0.045,-7.146 c -1.45,-0.352 -2.944,-0.529 -4.481,-0.529 -5.65,0 -9.983,1.764 -12.999,5.294 -3.017,3.529 -4.526,8.572 -4.526,15.13 0,4.844 1.08,8.093 3.239,9.747 C -8.371,-0.709 -4.969,0 0,0" /></g><g
           transform="translate(345.9956,202.793)"
           id="g154"><path
             id="path156"
             style="fill:#ffffff;fill-opacity:1;fill-rule:nonzero;stroke:none"
             d="m 0,0 c 3.519,0 6.211,-0.236 8.074,-0.709 l 0.045,-7.32 c -1.716,0.472 -4.037,0.71 -6.966,0.71 -2.337,0 -3.897,-0.377 -4.68,-1.129 -0.784,-0.753 -1.176,-2.236 -1.176,-4.448 0,-4.278 0.806,-7.369 2.418,-9.271 1.612,-1.903 4.207,-2.854 7.786,-2.854 0.946,0 1.952,0.132 3.017,0.399 l 0.045,-7.146 c -1.45,-0.352 -2.944,-0.529 -4.481,-0.529 -5.65,0 -9.983,1.764 -12.999,5.294 -3.017,3.529 -4.526,8.572 -4.526,15.13 0,4.844 1.08,8.093 3.239,9.747 C -8.371,-0.709 -4.969,0 0,0" /></g><g
           transform="translate(373.5894,195.7842)"
           id="g158"><path
             id="path160"
             style="fill:#ffffff;fill-opacity:1;fill-rule:nonzero;stroke:none"
             d="m 0,0 c -2.425,0 -4.2,-0.548 -5.324,-1.642 -1.124,-1.094 -1.685,-2.854 -1.685,-5.279 0,-2.515 0.547,-4.984 1.641,-7.409 1.36,-2.988 3.135,-4.482 5.324,-4.482 1.892,0 3.364,0.836 4.414,2.507 1.05,1.671 1.575,3.882 1.575,6.633 C 5.945,-3.225 3.963,0 0,0 M 0.355,7.098 V 7.054 c 4.407,0 7.934,-1.509 10.581,-4.526 2.647,-3.016 3.971,-6.95 3.971,-11.8 0,-4.704 -1.383,-8.623 -4.148,-11.757 -2.766,-3.136 -6.293,-4.703 -10.581,-4.703 -5.235,0 -9.332,2.086 -12.289,6.255 -2.603,3.667 -3.905,8.237 -3.905,13.709 0,4.141 1.427,7.321 4.282,9.539 2.854,2.218 6.883,3.327 12.089,3.327" /></g><g
           transform="translate(400.8276,193.4326)"
           id="g162"><path
             id="path164"
             style="fill:#ffffff;fill-opacity:1;fill-rule:nonzero;stroke:none"
             d="M 0,0 H -0.044 L -0.309,-17.479 V -24.4 l -7.852,1.863 c 0.621,6.891 0.932,13.412 0.932,19.564 0,4.141 -0.164,8.267 -0.489,12.378 L 3.329,8.518 C 3.979,6.3 5.444,2.277 7.721,-3.55 c 1.981,-5.057 3.297,-9.138 3.949,-12.244 0.768,3.253 2.217,7.379 4.348,12.378 2.721,6.329 4.406,10.381 5.057,12.155 L 31.368,8.074 31.235,3.017 v -14.374 c 0,-1.45 0.117,-3.299 0.355,-5.546 l 0.577,-5.59 -8.518,-2.085 c 0,0.503 -0.053,1.73 -0.156,3.682 -0.104,1.952 -0.155,3.253 -0.155,3.904 V 0.976 c -3.265,-9.11 -5.662,-16.903 -7.191,-23.38 L 6.53,-23.381 C 5.058,-16.963 2.882,-9.169 0,0" /></g><g
           transform="translate(437.2529,201.9951)"
           id="g166"><path
             id="path168"
             style="fill:#ffffff;fill-opacity:1;fill-rule:nonzero;stroke:none"
             d="m 0,0 19.964,-1.065 -0.488,-5.634 c -2.16,0.147 -5.398,0.31 -9.716,0.488 v -5.679 c 2.247,0.355 5.619,0.798 10.115,1.33 l -0.267,-6.476 c -0.414,0 -3.697,-0.296 -9.848,-0.888 v -6.344 l 10.647,1.464 0.843,-6.877 -20.318,-1.375 c 0,0.651 0.036,2.108 0.11,4.37 0.073,2.263 0.111,3.719 0.111,4.371 v 10.159 C 1.153,-7.897 0.769,-3.846 0,0" /></g><g
           transform="translate(472.3008,177.9043)"
           id="g170"><path
             id="path172"
             style="fill:#ffffff;fill-opacity:1;fill-rule:nonzero;stroke:none"
             d="m 0,0 c 0.824,-0.207 1.53,-0.311 2.119,-0.311 3.21,0 5.418,1.505 6.625,4.515 0.766,1.917 1.15,4.794 1.15,8.63 0,1.858 -0.369,3.127 -1.105,3.806 -0.736,0.678 -2.224,1.017 -4.461,1.017 H 2.782 c -1.09,0 -2.017,-0.073 -2.782,-0.22 z m -9.316,-6.787 h 0.044 c 0.561,4.525 0.842,9.937 0.842,16.237 0,2.81 -0.015,4.94 -0.044,6.389 -0.03,1.182 -0.177,3.932 -0.444,8.252 h 5.724 c 0.798,0 2.617,0.066 5.457,0.199 2.839,0.133 4.658,0.2 5.456,0.2 3.076,0 5.686,-1.063 7.831,-3.19 2.143,-2.127 3.216,-4.726 3.216,-7.797 0,-7.178 -1.139,-12.287 -3.416,-15.329 -2.633,-3.515 -7.424,-5.272 -14.374,-5.272 -0.77,0 -2.493,0.052 -5.168,0.156 -2.678,0.102 -4.386,0.155 -5.124,0.155" /></g><g
           transform="translate(510.8535,195.7842)"
           id="g174"><path
             id="path176"
             style="fill:#ffffff;fill-opacity:1;fill-rule:nonzero;stroke:none"
             d="m 0,0 c -2.426,0 -4.2,-0.548 -5.324,-1.642 -1.124,-1.094 -1.686,-2.854 -1.686,-5.279 0,-2.515 0.547,-4.984 1.642,-7.409 1.359,-2.988 3.135,-4.482 5.323,-4.482 1.893,0 3.364,0.836 4.415,2.507 1.049,1.671 1.574,3.882 1.574,6.633 C 5.944,-3.225 3.963,0 0,0 M 0.354,7.098 V 7.054 c 4.408,0 7.934,-1.509 10.582,-4.526 2.646,-3.016 3.97,-6.95 3.97,-11.8 0,-4.704 -1.383,-8.623 -4.148,-11.757 -2.766,-3.136 -6.292,-4.703 -10.581,-4.703 -5.235,0 -9.331,2.086 -12.289,6.255 -2.603,3.667 -3.904,8.237 -3.904,13.709 0,4.141 1.426,7.321 4.282,9.539 2.853,2.218 6.882,3.327 12.088,3.327" /></g><g
           transform="translate(541.2422,196.8486)"
           id="g178"><path
             id="path180"
             style="fill:#ffffff;fill-opacity:1;fill-rule:nonzero;stroke:none"
             d="m 0,0 c -0.857,0 -1.686,-0.089 -2.484,-0.267 v -8.207 h 0.931 c 0.859,-0.03 1.183,-0.045 0.977,-0.045 1.715,0 3.12,0.437 4.215,1.31 1.093,0.872 1.641,2.033 1.641,3.482 C 5.28,-1.242 3.52,0 0,0 m -11.712,5.146 h 1.774 1.066 0.754 c 0.857,0 2.824,0.082 5.9,0.245 3.076,0.162 5.058,0.243 5.946,0.243 2.424,0 4.642,-0.917 6.654,-2.75 2.011,-1.834 3.016,-3.934 3.016,-6.3 0,-2.012 -0.665,-3.809 -1.996,-5.391 -1.331,-1.582 -2.972,-2.581 -4.924,-2.994 2.573,-5.235 5.929,-9.938 10.071,-14.108 l -6.877,-5.058 c -6.033,7.188 -10.026,13.472 -11.979,18.856 v -5.281 c 0,-2.838 0.089,-5.678 0.267,-8.517 l -9.229,-2.085 c 0.296,2.721 0.445,5.161 0.445,7.32 v 16.726 c 0,2.395 -0.296,5.427 -0.888,9.094" /></g><g
           transform="translate(578.3311,201.9951)"
           id="g182"><path
             id="path184"
             style="fill:#ffffff;fill-opacity:1;fill-rule:nonzero;stroke:none"
             d="M 0,0 9.849,1.064 C 9.825,0.532 9.722,-0.873 9.538,-3.15 9.331,-4.807 9.228,-6.227 9.228,-7.409 V -24.8 c 4.436,0.473 7.734,0.976 9.893,1.508 l 0.71,-6.521 -19.477,-1.199 c 0.208,4.2 0.311,7.35 0.311,9.45 v 6.167 3.593 2.573 C 0.665,-8.784 0.443,-5.709 0,0" /></g><g
           transform="translate(616.3516,196.3164)"
           id="g186"><path
             id="path188"
             style="fill:#ffffff;fill-opacity:1;fill-rule:nonzero;stroke:none"
             d="m 0,0 c -0.236,-1.036 -0.636,-2.914 -1.197,-5.635 -0.326,-1.508 -0.637,-2.928 -0.932,-4.259 l 4.569,-0.71 C 1.228,-6.729 0.414,-3.194 0,0 M -4.88,5.768 5.103,5.058 C 5.782,3.756 6.374,2.069 6.877,0 l 1.331,-5.235 c 2.514,-8.105 5.146,-14.818 7.896,-20.142 l -8.517,-2.218 c -1.834,4.584 -3.076,8.591 -3.727,12.023 l -7.231,0.71 c -1.331,-3.668 -2.041,-5.679 -2.13,-6.034 -0.739,-2.071 -1.271,-4.126 -1.597,-6.167 l -8.119,1.73 C -9.745,-12.349 -6.3,-1.982 -4.88,5.768" /></g><g
           transform="translate(633.8311,195.5176)"
           id="g190"><path
             id="path192"
             style="fill:#ffffff;fill-opacity:1;fill-rule:nonzero;stroke:none"
             d="m 0,0 0.488,6.478 h 6.788 c 6.418,0 11.24,0.058 14.463,0.176 l 0.311,-6.3 -6.699,-0.176 v -17.036 c 0,-0.859 0.147,-3.432 0.443,-7.72 L 6.3,-25.998 c 0.473,3.318 0.71,7.406 0.71,12.266 0,2.547 -0.015,4.887 -0.044,7.021 C 6.906,-3.156 6.892,-0.815 6.922,0.311 5.324,0.399 4.141,0.443 3.372,0.443 3.579,0.443 2.455,0.295 0,0" /></g><g
           transform="translate(659.7402,202.1719)"
           id="g194"><path
             id="path196"
             style="fill:#ffffff;fill-opacity:1;fill-rule:nonzero;stroke:none"
             d="M 0,0 9.538,0.71 9.184,-7.719 c 0,-8.459 0.369,-16.298 1.109,-23.513 l -9.627,-1.375 v 2.794 C 0.666,-18.219 0.443,-8.281 0,0" /></g><g
           transform="translate(674.5576,201.1074)"
           id="g198"><path
             id="path200"
             style="fill:#ffffff;fill-opacity:1;fill-rule:nonzero;stroke:none"
             d="m 0,0 8.03,2.085 7.098,-11.668 c 2.573,-4.318 4.629,-8.355 6.167,-12.111 -0.65,3.519 -0.976,9.331 -0.976,17.435 0,2.81 -0.03,4.925 -0.089,6.344 l 7.853,-1.197 c -0.443,-4.763 -0.666,-9.998 -0.666,-15.705 0,-4.053 0.104,-8.933 0.311,-14.641 l -8.696,-1.509 -6.122,10.825 c -2.159,3.905 -3.964,7.616 -5.412,11.136 0.236,-8.193 0.606,-16.001 1.108,-23.425 l -8.873,2.263 c 0.385,5.294 0.578,10.604 0.578,15.927 C 0.311,-10.278 0.206,-5.531 0,0" /></g><g
           transform="translate(718.3896,195.7842)"
           id="g202"><path
             id="path204"
             style="fill:#ffffff;fill-opacity:1;fill-rule:nonzero;stroke:none"
             d="m 0,0 c -2.426,0 -4.2,-0.548 -5.324,-1.642 -1.124,-1.094 -1.686,-2.854 -1.686,-5.279 0,-2.515 0.547,-4.984 1.642,-7.409 1.359,-2.988 3.135,-4.482 5.323,-4.482 1.893,0 3.364,0.836 4.415,2.507 1.049,1.671 1.574,3.882 1.574,6.633 C 5.944,-3.225 3.963,0 0,0 M 0.354,7.098 V 7.054 c 4.408,0 7.934,-1.509 10.582,-4.526 2.646,-3.016 3.97,-6.95 3.97,-11.8 0,-4.704 -1.383,-8.623 -4.148,-11.757 -2.766,-3.136 -6.292,-4.703 -10.581,-4.703 -5.235,0 -9.331,2.086 -12.289,6.255 -2.603,3.667 -3.904,8.237 -3.904,13.709 0,4.141 1.426,7.321 4.282,9.539 2.853,2.218 6.882,3.327 12.088,3.327" /></g></g></g></g></svg>
