<svg width="566" height="759" viewBox="0 0 566 759" fill="none" xmlns="http://www.w3.org/2000/svg">
<path d="M565.155 120.02C565.155 119.175 565.155 118.33 564.31 117.484C564.31 117.484 564.31 117.484 564.31 116.639C564.31 115.794 563.466 114.949 562.621 114.949C562.621 114.949 562.621 114.949 561.776 114.104L426.612 1.69042C425.767 0.84521 425.767 0.845211 424.922 0.845211C424.922 0.845211 424.922 0.845211 424.078 0.845211C423.233 -8.34465e-07 422.388 0 421.543 0C420.699 0 419.854 0 419.009 0L241.606 47.3318C237.382 48.1771 234.848 52.4031 235.693 56.6292C237.382 67.6169 230.624 78.6047 219.642 81.1403C208.66 83.6759 197.678 77.7595 193.454 67.6169C191.764 63.3909 187.54 61.7004 183.316 62.5456L5.06866 110.723H4.22388H3.3791C2.53433 110.723 1.68954 111.568 1.68954 112.413C0.844766 113.258 0.844776 114.104 0 114.949V115.794V116.639C0 117.484 0 117.484 0 118.33C0 118.33 0 118.33 0 119.175V639.825C0 639.825 0 639.825 0 640.67C0 641.516 3.21865e-06 642.361 0.844779 643.206C0.844779 644.051 1.68954 644.051 1.68954 644.051C1.68954 644.896 2.53432 644.896 2.53432 645.742C2.53432 645.742 2.53433 645.742 3.3791 645.742L139.388 757.31L140.233 758.155H141.078C141.922 758.155 142.767 759 143.612 759C144.457 759 145.302 759 146.146 759L560.087 648.277C563.466 647.432 566 644.051 566 639.825L565.155 120.02ZM429.991 26.2016L538.967 115.794L429.991 145.376V26.2016ZM180.782 81.9855C190.075 95.5089 206.97 103.116 223.866 98.8898C240.761 94.6637 251.743 79.4499 252.588 62.5456L413.096 19.4399V149.602L376.77 158.9C372.546 159.745 370.012 164.816 370.857 169.042C374.236 180.875 366.633 192.708 354.806 196.089C343.824 199.47 331.997 192.708 327.773 181.72C327.773 177.494 323.549 174.114 319.325 174.114C318.481 174.114 317.636 174.114 316.791 174.114L143.612 220.6L25.3433 123.401L180.782 81.9855ZM16.0507 137.769L66.7373 180.03V572.208L16.0507 621.23V137.769ZM71.806 590.803L123.337 726.037L20.2746 639.825L71.806 590.803ZM83.6328 573.899V193.553L134.319 235.814V707.442L83.6328 573.899ZM151.215 741.25V237.504L315.102 193.553C321.86 206.232 335.376 214.684 349.737 214.684C353.116 214.684 356.496 213.839 359.875 212.993C377.615 207.922 389.442 191.863 388.597 173.268L549.104 130.163V633.909L151.215 741.25Z" fill="black"/>
</svg>
