<svg width="748" height="748" viewBox="0 0 748 748" fill="none" xmlns="http://www.w3.org/2000/svg">
<path d="M527.362 511.481C616.863 511.481 689.677 438.666 689.677 349.169V212.378C689.677 188.742 679.783 165.915 662.531 149.744C645.036 133.345 622.095 125.168 598.154 126.729C553.216 129.638 518.012 168.408 518.012 214.998V329.122C518.012 344.412 505.576 356.852 490.286 356.852H479.74V104.181C479.74 75.9887 468.66 49.5865 448.54 29.8317C428.429 10.086 401.95 -0.368987 373.603 0.00994875C317.224 1.04175 271.36 49.1847 271.36 107.326V250.536H260.147C243.707 250.536 233.083 236.379 233.083 214.469V142.932C233.083 96.3644 197.884 57.6035 152.946 54.6907C128.878 53.1658 106.05 61.3107 88.5648 77.7099C71.3166 93.8762 61.4233 116.708 61.4233 140.339V242.848C61.4233 332.35 134.237 405.164 223.733 405.164H271.36V729.3H9.35C4.1865 729.3 0 733.486 0 738.65C0 743.813 4.1865 748 9.35 748H738.65C743.814 748 748 743.813 748 738.65C748 733.486 743.814 729.3 738.65 729.3H479.74V511.481H527.362ZM290.06 729.3V395.814C290.06 390.651 285.874 386.464 280.71 386.464H223.733C144.546 386.464 80.1233 322.036 80.1233 242.848V140.339C80.1233 121.584 87.6608 104.185 101.353 91.3515C115.031 78.5271 132.936 72.1171 151.741 73.3544C186.868 75.628 214.383 106.194 214.383 142.932V214.469C214.383 246.715 233.202 269.236 260.147 269.236H280.71C285.874 269.236 290.06 265.05 290.06 259.886V107.326C290.06 59.3064 327.688 19.5548 373.945 18.7102C397.051 18.0573 418.933 26.9737 435.442 43.1766C451.95 59.384 461.04 81.0472 461.04 104.181V366.203C461.04 371.366 465.226 375.553 470.39 375.553H490.286C515.884 375.553 536.712 354.725 536.712 329.122V214.998C536.712 178.237 564.232 147.667 599.359 145.393C618.173 144.16 636.065 150.566 649.743 163.386C663.435 176.224 670.977 193.618 670.977 212.378V349.169C670.977 428.357 606.549 492.781 527.362 492.781H470.39C465.226 492.781 461.04 496.967 461.04 502.131V729.3H290.06Z" fill="black"/>
<path d="M373.635 134.997C376.027 134.997 378.419 134.084 380.245 132.258L398.01 114.498C401.662 110.85 401.662 104.929 398.01 101.277C394.357 97.6243 388.44 97.6243 384.788 101.277L367.024 119.036C363.372 122.684 363.372 128.606 367.024 132.258C368.85 134.084 371.242 134.997 373.635 134.997Z" fill="black"/>
<path d="M126.627 119.036L108.867 136.796C105.215 140.448 105.215 146.365 108.867 150.018C110.693 151.844 113.086 152.757 115.478 152.757C117.87 152.757 120.262 151.844 122.089 150.018L139.848 132.258C143.501 128.606 143.501 122.689 139.848 119.036C136.196 115.384 130.279 115.384 126.627 119.036Z" fill="black"/>
<path d="M411.427 216.386L393.668 234.146C390.016 237.798 390.016 243.715 393.668 247.367C395.494 249.194 397.886 250.107 400.279 250.107C402.671 250.107 405.063 249.194 406.889 247.367L424.649 229.608C428.301 225.955 428.301 220.038 424.649 216.386C420.997 212.734 415.08 212.734 411.427 216.386Z" fill="black"/>
<path d="M571.29 268.337C573.683 268.337 576.075 267.424 577.901 265.597L595.661 247.838C599.313 244.185 599.313 238.268 595.661 234.616C592.008 230.964 586.092 230.964 582.439 234.616L564.68 252.376C561.027 256.028 561.027 261.945 564.68 265.597C566.506 267.424 568.898 268.337 571.29 268.337Z" fill="black"/>
<path d="M126.627 207.506L108.867 225.266C105.215 228.918 105.215 234.835 108.867 238.488C110.693 240.314 113.086 241.227 115.478 241.227C117.87 241.227 120.262 240.314 122.089 238.488L139.848 220.728C143.501 217.076 143.501 211.159 139.848 207.506C136.196 203.854 130.279 203.854 126.627 207.506Z" fill="black"/>
<path d="M347.525 169.129C343.873 165.476 337.956 165.476 334.304 169.129C330.651 172.781 330.651 178.703 334.304 182.35L352.068 200.11C353.894 201.936 356.286 202.849 358.679 202.849C361.071 202.849 363.463 201.936 365.289 200.11C368.942 196.458 368.942 190.536 365.289 186.889L347.525 169.129Z" fill="black"/>
<path d="M612.827 208.99C614.653 210.816 617.045 211.729 619.438 211.729C621.83 211.729 624.222 210.816 626.048 208.99C629.701 205.338 629.701 199.421 626.048 195.768L608.289 178.009C604.637 174.356 598.72 174.356 595.067 178.009C591.415 181.661 591.415 187.578 595.067 191.23L612.827 208.99Z" fill="black"/>
<path d="M161.826 160.249C158.174 156.597 152.257 156.597 148.604 160.249C144.952 163.901 144.952 169.818 148.604 173.471L166.364 191.23C168.19 193.056 170.582 193.97 172.975 193.97C175.367 193.97 177.759 193.056 179.586 191.23C183.238 187.578 183.238 181.661 179.586 178.009L161.826 160.249Z" fill="black"/>
<path d="M389.125 309.394C385.473 305.742 379.556 305.742 375.904 309.394C372.251 313.046 372.251 318.968 375.904 322.616L393.668 340.375C395.494 342.202 397.886 343.115 400.279 343.115C402.671 343.115 405.063 342.202 406.889 340.375C410.542 336.723 410.542 330.802 406.889 327.154L389.125 309.394Z" fill="black"/>
<path d="M613.297 270.149C609.645 273.802 609.645 279.718 613.297 283.371L631.056 301.131C632.883 302.957 635.275 303.87 637.667 303.87C640.059 303.87 642.452 302.957 644.278 301.131C647.93 297.478 647.93 291.561 644.278 287.909L626.518 270.149C622.866 266.497 616.949 266.497 613.297 270.149Z" fill="black"/>
</svg>
