<svg width="748" height="748" viewBox="0 0 748 748" fill="none" xmlns="http://www.w3.org/2000/svg">
<path d="M211.707 0C197.097 0 185.723 10.1245 176.94 30.9537C174.249 37.3408 168.367 42.2843 160.8 44.523C66.1241 72.5663 0 174.108 0 291.458C0 410.005 66.9558 511.784 162.824 538.973C169.103 540.755 174.157 545.273 176.693 551.377C185.513 572.599 196.965 582.916 211.707 582.916C226.449 582.916 237.9 572.599 246.711 551.377C249.247 545.273 254.306 540.755 260.585 538.973C356.453 511.784 423.409 410.005 423.409 291.458C423.409 173.277 356.704 71.5658 261.197 44.1164C254.562 42.2066 249.192 37.4094 246.469 30.9537C237.686 10.1245 226.312 0 211.707 0ZM256.024 62.0992C343.557 87.2596 404.691 181.573 404.691 291.458C404.691 401.676 343.333 496.053 255.476 520.972C243.667 524.321 234.172 532.782 229.428 544.2C218.397 570.744 205.007 570.744 193.976 544.2C189.242 532.787 179.746 524.321 167.933 520.972C80.0755 496.053 18.7176 401.676 18.7176 291.458C18.7176 182.336 79.3306 88.1688 166.114 62.4693C179.074 58.6315 189.306 49.7954 194.186 38.2272C199.647 25.2792 205.542 18.7138 211.707 18.7138C217.867 18.7138 223.762 25.2792 229.223 38.2272C234.158 49.9233 243.928 58.6223 256.024 62.0992Z" fill="black"/>
<path d="M346.74 273.173C346.959 278.199 351.099 282.124 356.08 282.124C356.222 282.124 356.359 282.119 356.496 282.115C361.66 281.891 365.663 277.523 365.439 272.36C362.565 206.592 333.058 148.335 286.506 116.514C282.224 113.608 276.416 114.695 273.496 118.958C270.581 123.225 271.673 129.046 275.941 131.965C317.032 160.05 344.162 214.158 346.74 273.173Z" fill="black"/>
<path d="M353.963 324.828C348.831 323.937 344.038 327.405 343.174 332.49C338.12 362.343 326.769 390.039 310.345 412.581C307.306 416.762 308.225 422.614 312.401 425.657C314.065 426.868 315.993 427.448 317.903 427.448C320.796 427.448 323.648 426.114 325.48 423.601C343.595 398.728 356.093 368.3 361.627 335.615C362.49 330.521 359.058 325.687 353.963 324.828Z" fill="black"/>
<path d="M628.31 395.17C626.706 400.081 629.388 405.367 634.301 406.971C635.265 407.286 636.247 407.437 637.207 407.437C641.146 407.437 644.816 404.928 646.104 400.981C654.453 375.419 661.509 347.878 667.111 318.866L679.642 242.882C680.482 237.783 677.028 232.968 671.928 232.127C666.778 231.296 662.012 234.741 661.171 239.839L648.686 315.567C643.276 343.565 636.421 370.347 628.31 395.17Z" fill="black"/>
<path d="M617.554 447.131C612.788 445.098 607.3 447.323 605.28 452.074C595.163 475.841 583.473 498.064 570.541 518.121C567.74 522.466 568.992 528.259 573.333 531.055C574.905 532.07 576.66 532.549 578.396 532.549C581.472 532.549 584.483 531.037 586.27 528.264C599.778 507.311 611.97 484.143 622.499 459.403C624.523 454.647 622.311 449.155 617.554 447.131Z" fill="black"/>
<path d="M700.054 39.5199C693.606 30.5148 684.042 24.5617 673.115 22.757C650.527 19.0563 629.205 34.3892 625.398 57.6535L620.723 110.994C578.148 119.318 543.082 153.156 535.626 198.396L526.605 253.139C526.239 256.054 487.95 546.063 294.568 650.433C242.633 678.463 221.182 699.31 225.03 718.033C228.279 733.86 248.121 742.888 287.471 746.442C299.028 747.484 310.525 748 321.968 748C449.221 748 567.788 684.329 637.238 576.62C680.518 509.508 711.94 426.406 730.639 329.625C730.653 329.543 730.671 329.461 730.685 329.374L746.551 233.164C751.194 205.002 744.595 176.712 727.957 153.516C718.868 140.839 707.319 130.615 694.17 123.095L707.251 70.4279C709.052 59.4993 706.497 48.5251 700.054 39.5199ZM712.749 164.417C726.467 183.556 731.914 206.889 728.08 230.121L712.237 326.203C693.99 420.572 663.469 501.412 621.509 566.477C549.595 678.006 422.283 739.799 289.152 727.801C245.831 723.89 243.382 714.365 243.364 714.273C243.249 713.72 241.316 700.439 303.46 666.899C409.286 609.785 469.392 500.782 501.179 419.402C535.429 331.722 544.797 258.521 545.126 255.816L554.097 201.438C561.207 158.313 598.683 127.62 641.045 127.62C645.788 127.62 650.605 128.004 655.435 128.804C678.672 132.632 699.026 145.283 712.749 164.417ZM658.478 110.336C652.153 109.293 645.879 108.935 639.68 109.014L643.956 59.9928C645.989 47.6022 657.692 39.1681 670.072 41.2241C676.054 42.211 681.295 45.4731 684.832 50.412C688.369 55.3554 689.772 61.3817 688.936 66.6495L676.87 115.137C670.94 113.043 664.814 111.382 658.478 110.336Z" fill="black"/>
</svg>
