<svg width="421" height="747" viewBox="0 0 421 747" fill="none" xmlns="http://www.w3.org/2000/svg">
<path d="M48.0917 747C53.6993 747 59.307 747 65.8492 746.065C200.433 735.777 318.193 653.472 371.466 530.014C402.308 459.868 419.131 375.692 421 281.228V187.7C421 133.453 378.943 88.5597 324.735 84.8186C325.67 73.5952 326.605 38.9897 305.109 4.38415C302.305 -0.292275 296.697 -1.22756 292.024 1.57829C287.351 4.38415 286.417 9.99586 289.22 14.6723C309.782 47.4072 306.978 81.0775 306.043 85.7539C254.64 91.3656 214.452 135.324 214.452 188.635V241.946C214.452 244.752 223.798 525.338 56.5031 655.342C11.642 689.948 -5.18094 713.33 1.36131 731.1C6.96896 741.388 21.9227 747 48.0917 747ZM68.653 668.436C160.245 597.354 200.433 484.185 217.256 401.88C235.948 313.028 233.144 241.946 233.144 240.076V186.765C233.144 140 271.463 102.589 317.259 102.589C363.054 102.589 401.373 140.936 401.373 186.765V280.293C398.569 372.886 382.681 454.256 352.774 522.532C302.305 639.442 191.087 718.006 63.0454 727.359C21.9227 730.165 18.1843 721.747 18.1843 721.747C19.1189 721.747 15.3804 709.589 68.653 668.436Z" fill="black"/>
</svg>
