<svg width="733" height="739" viewBox="0 0 733 739" fill="none" xmlns="http://www.w3.org/2000/svg">
<path d="M732.945 241.909L714.573 62.6387C714.647 62.1676 714.85 61.7427 714.85 61.2531V9.23738C714.85 4.12911 710.714 0 705.618 0H27.6032C22.5073 0 18.3714 4.12911 18.3714 9.23738V61.2531C18.3714 61.4656 18.4729 61.6411 18.4914 61.8443L0.0461592 241.918C0.00923181 242.306 0.156942 242.666 0.166173 243.045C0.138478 243.34 0 243.59 0 243.895C0 260.032 7.13622 274.498 18.3806 284.401V729.763C18.3806 734.871 22.5165 739 27.6125 739H703.08C708.176 739 712.311 734.871 712.311 729.763V286.331C724.885 276.438 733 261.113 733 243.895C733 243.599 732.862 243.34 732.834 243.045C732.825 242.657 732.982 242.297 732.945 241.909ZM679.104 279.403C662.395 279.403 648.436 267.718 644.725 252.088H713.484C709.763 267.718 695.805 279.403 679.104 279.403ZM477.435 562.575V720.516H265.342V562.575H477.435ZM477.435 544.1H380.62V500.537H431.091C436.187 500.537 440.323 496.408 440.323 491.3C440.323 486.191 436.187 482.062 431.091 482.062H311.686C306.59 482.062 302.454 486.191 302.454 491.3C302.454 496.408 306.59 500.537 311.686 500.537H362.156V544.1H265.342V286.608C269.912 283.08 273.937 278.867 277.177 274.073C286.871 288.428 303.276 297.878 321.832 297.878C340.388 297.878 356.793 288.428 366.486 274.073C376.18 288.428 392.585 297.878 411.141 297.878C429.697 297.878 446.102 288.428 455.795 274.073C461.187 282.045 468.674 288.456 477.416 292.622V544.1H477.435ZM19.5069 252.088H88.2658C84.5546 267.718 70.596 279.403 53.8863 279.403C37.1767 279.403 23.2273 267.718 19.5069 252.088ZM36.1704 70.4905H87.7395V233.613H19.4607L36.1704 70.4905ZM713.53 233.613H641.254V70.4905H696.811L713.53 233.613ZM622.799 233.613H551.123V70.4905H622.799V233.613ZM375.847 233.613V70.4905H446.582V233.613H375.847ZM357.384 233.613H286.409V70.4905H357.384V233.613ZM267.945 233.613H197.091V70.4905H267.945V233.613ZM356.211 252.088C352.5 267.718 338.541 279.403 321.832 279.403C305.122 279.403 291.163 267.718 287.452 252.088H356.211ZM445.529 252.088C441.818 267.718 427.86 279.403 411.15 279.403C394.44 279.403 380.482 267.718 376.77 252.088H445.529ZM465.045 70.4905H532.66V233.613H465.045V70.4905ZM551.114 52.0157V18.4748H622.79V52.0157H551.114ZM532.65 52.0157H465.036V18.4748H532.65V52.0157ZM446.582 52.0157H375.847V18.4748H446.582V52.0157ZM357.384 52.0157H286.409V18.4748H357.384V52.0157ZM267.945 52.0157H197.091V18.4748H267.945V52.0157ZM178.627 52.0157H106.194V18.4748H178.627V52.0157ZM178.627 70.4905V233.613H106.194V70.4905H178.627ZM177.584 252.088C173.873 267.718 159.914 279.403 143.205 279.403C126.495 279.403 112.536 267.718 108.825 252.088H177.584ZM266.902 252.088C263.191 267.718 249.232 279.403 232.523 279.403C215.813 279.403 201.854 267.718 198.143 252.088H266.902ZM466.089 252.088H534.847C531.136 267.718 517.178 279.403 500.468 279.403C483.758 279.403 469.809 267.718 466.089 252.088ZM624.166 252.088C620.454 267.718 606.496 279.403 589.786 279.403C573.077 279.403 559.118 267.718 555.407 252.088H624.166ZM696.386 52.0157H641.254V18.4748H696.386V52.0157ZM36.8351 18.4748H87.7303V52.0157H36.8351V18.4748ZM53.8863 297.878C72.4516 297.878 88.8474 288.428 98.5408 274.073C108.234 288.428 124.639 297.878 143.195 297.878C161.751 297.878 178.156 288.428 187.85 274.073C197.543 288.428 213.948 297.878 232.504 297.878C237.48 297.878 242.29 297.148 246.869 295.873V544.11H151.089V500.537H201.559C206.655 500.537 210.791 496.408 210.791 491.3C210.791 486.191 206.655 482.062 201.559 482.062H82.1635C77.0675 482.062 72.9316 486.191 72.9316 491.3C72.9316 496.408 77.0675 500.537 82.1635 500.537H132.634V544.1H36.8351V295.061C42.208 296.862 47.9226 297.878 53.8863 297.878ZM36.8351 562.575H246.878V720.516H36.8351V562.575ZM495.898 720.516V696.887H693.838V720.516H495.898ZM693.838 678.412H495.898V297.647C497.412 297.776 498.926 297.878 500.468 297.878C519.033 297.878 535.429 288.428 545.123 274.073C554.816 288.428 571.221 297.878 589.777 297.878C608.333 297.878 624.738 288.428 634.432 274.073C644.125 288.428 660.53 297.878 679.086 297.878C684.2 297.878 689.13 297.111 693.82 295.772V678.412H693.838Z" fill="black"/>
</svg>
