<svg width="747" height="749" viewBox="0 0 747 749" fill="none" xmlns="http://www.w3.org/2000/svg">
<path d="M680.055 92.1234L684.21 40.2593C684.21 18.0589 666.168 0 643.993 0C621.818 0 603.776 18.0589 603.803 40.9716L607.699 92.0737C568.581 106.753 540.616 144.417 540.616 188.585L540.625 241.976C540.735 244.802 549.92 525.791 382.684 655.121C337.626 689.965 320.493 713.239 327.139 730.576C331.829 742.813 346.752 748.694 373.65 748.694C379.021 748.694 384.877 748.457 391.216 747.991C526.278 738.074 643.436 655.254 696.972 531.85C727.57 461.318 744.401 377.475 746.995 282.646C747 282.559 747 282.477 747 282.391V188.585C747 144.468 719.1 106.838 680.055 92.1234ZM622.484 40.2593C622.484 28.3738 632.131 18.7027 643.993 18.7027C655.855 18.7027 665.501 28.3738 665.533 39.5059L661.698 87.0858C655.876 86.0624 649.921 85.4272 643.81 85.4272C637.753 85.4272 631.85 86.0567 626.075 87.0624L622.484 40.2593ZM728.291 282.263C725.747 374.639 709.437 456.112 679.807 524.408C629.048 641.405 517.943 719.933 389.846 729.339C348.368 732.403 344.641 723.969 344.609 723.882C344.418 723.389 340.59 711.321 394.131 669.915C485.732 599.072 525.762 486.116 543.21 403.835C562.001 315.207 559.434 244.213 559.325 241.606V188.585C559.325 142.015 597.226 104.13 643.81 104.13C690.395 104.13 728.291 142.015 728.291 188.585V282.263Z" fill="black"/>
<path d="M675.648 198.927C670.483 198.927 666.294 203.114 666.294 208.278L666.299 282.112C665.55 309.495 663.234 335.974 659.425 360.813C658.639 365.918 662.142 370.694 667.249 371.475C667.733 371.548 668.208 371.585 668.683 371.585C673.219 371.585 677.206 368.274 677.914 363.653C681.847 338.042 684.231 310.783 685.003 282.368V208.278C685.003 203.114 680.814 198.927 675.648 198.927Z" fill="black"/>
<path d="M657.774 411.529C652.758 410.328 647.693 413.383 646.469 418.401C640.577 442.56 632.967 465.468 623.846 486.482C621.791 491.217 623.965 496.728 628.706 498.783C629.916 499.308 631.181 499.559 632.424 499.559C636.037 499.559 639.481 497.449 641.011 493.924C650.552 471.939 658.504 448.021 664.648 422.83C665.872 417.812 662.793 412.753 657.774 411.529Z" fill="black"/>
<path d="M364.316 93.8833C409.374 59.0348 426.507 35.766 419.861 18.4285C414.239 3.7485 393.89 -1.76279 355.784 1.00883C220.722 10.9264 103.564 93.7463 50.0282 217.154C19.4303 287.682 2.60349 371.525 0.00456753 466.354C-1.75327e-07 466.441 0 466.523 0 466.61V560.415C0 604.535 27.8996 642.166 66.9446 656.881L62.7899 708.741C62.7899 730.941 80.8317 749 103.007 749C125.182 749 143.224 730.941 143.197 708.028L139.301 656.931C178.419 642.252 206.384 604.586 206.384 560.415L206.375 507.024C206.265 504.202 197.222 223.104 364.316 93.8833ZM124.516 708.741C124.516 720.626 114.869 730.297 103.007 730.297C91.1452 730.297 81.4985 720.626 81.4665 709.494L85.3016 661.919C91.1235 662.942 97.0789 663.577 103.19 663.577C109.248 663.577 115.151 662.948 120.925 661.942L124.516 708.741ZM203.79 345.17C184.999 433.798 187.566 504.787 187.675 507.394V560.415C187.675 606.985 149.774 644.875 103.19 644.875C56.6055 644.875 18.7086 606.985 18.7086 560.415V466.737C21.2527 374.361 37.5634 292.888 67.193 224.597C117.952 107.595 229.057 29.0675 357.154 19.6659C398.645 16.5884 402.354 25.0311 402.391 25.1178C402.583 25.611 406.41 37.6838 352.869 79.0892C261.268 149.932 221.238 262.884 203.79 345.17Z" fill="black"/>
<path d="M79.7538 377.525C74.6336 376.744 69.8696 380.238 69.0886 385.347C65.1559 410.958 62.7717 438.218 61.9998 466.633V540.722C61.9998 545.887 66.1882 550.074 71.3541 550.074C76.5199 550.074 80.7084 545.887 80.7084 540.722L80.7038 466.888C81.4529 439.506 83.7686 413.027 87.5779 388.187C88.3636 383.082 84.8603 378.306 79.7538 377.525Z" fill="black"/>
<path d="M118.294 250.218C113.534 248.158 108.044 250.332 105.989 255.076C96.4379 277.089 88.4859 301.006 82.3517 326.17C81.1276 331.188 84.2061 336.247 89.2258 337.471C89.9703 337.649 90.7148 337.736 91.4502 337.736C95.6615 337.736 99.4891 334.873 100.53 330.599C106.413 306.463 114.023 283.559 123.153 262.519C125.209 257.779 123.035 252.272 118.294 250.218Z" fill="black"/>
</svg>
