<svg width="1488" height="1488" viewBox="0 0 1488 1488" fill="none" xmlns="http://www.w3.org/2000/svg">
<circle cx="743.5" cy="741.5" r="619.5" fill="white"/>
<path fill-rule="evenodd" clip-rule="evenodd" d="M825.59 94.4427L743.532 0L661.474 94.4427L558.507 23.3741L502.513 135.257L385.107 92.0278L358.697 214.32L234.229 201.647L239.061 326.666L115.352 345.345L151.123 465.234L35.9458 514.091L100.409 621.318L1 697.284L90.1038 785.11L12.7101 883.412L120.856 946.32L70.3405 1060.78L190.733 1094.82L170.27 1218.24L295.345 1221.27L306.22 1345.91L428.118 1317.74L469.647 1435.75L580.71 1378.15L650.284 1482.13L743.532 1398.72L836.78 1482.13L906.354 1378.15L1017.42 1435.75L1058.95 1317.74L1180.84 1345.91L1191.72 1221.27L1316.79 1218.24L1296.33 1094.82L1416.72 1060.78L1366.21 946.32L1474.35 883.412L1396.96 785.11L1486.06 697.284L1386.65 621.318L1451.12 514.091L1335.94 465.234L1371.71 345.345L1248 326.666L1252.83 201.647L1128.37 214.32L1101.96 92.0278L984.55 135.257L928.557 23.3741L825.59 94.4427ZM743.983 1349.85C1078.84 1349.85 1350.29 1078.4 1350.29 743.549C1350.29 408.695 1078.84 137.243 743.983 137.243C409.13 137.243 137.678 408.695 137.678 743.549C137.678 1078.4 409.13 1349.85 743.983 1349.85Z" fill="#BF1E2D"/>
<path d="M522.797 681.324C522.797 681.324 535.473 701.848 555.995 712.709C555.995 712.709 636.271 666.836 578.929 599.84C578.929 599.84 547.024 554.205 479.009 599.748C410.996 645.292 429.272 807.389 550.319 810.086C671.368 812.784 692.343 690.537 692.343 690.537C692.343 690.537 702.228 615.629 673.767 563.794C645.3 511.961 584.476 465.518 496.088 464.02C407.699 462.522 299.195 546.99 291.699 660.369C284.203 773.748 338.549 856.204 384.463 900.244H584.047C584.047 900.244 372.281 780.308 386.337 664.117C400.393 547.926 470.668 526.376 521.267 527.312C571.867 528.248 644.952 569.478 636.52 662.242C628.087 755.008 546.567 749.384 546.567 749.384C546.567 749.384 486.599 745.637 483.787 684.732C483.787 684.732 482.851 628.509 538.132 631.322C538.132 631.322 566.243 639.753 557.811 662.242C549.379 684.732 542.131 683.542 522.797 681.324Z" fill="#A9CF37"/>
<path d="M299.217 815.261C298.429 815.261 297.606 815.192 296.77 815.058C292.065 814.306 289.261 811.812 287.677 808.925C287.581 808.93 287.479 808.933 287.373 808.933H286.269L285.55 808.094C284.827 807.256 284.827 807.256 285.526 802.66L287.561 789.285C291.707 762.061 317.946 653.238 323.022 632.284L291.63 637.099C290.853 637.428 289.039 638.072 286.789 638.072H286.787C284.061 638.072 279.022 637.041 275.926 630.145C274.125 626.137 273.927 622.682 275.338 619.881C277.185 616.214 280.985 615.288 281.411 615.194L359.134 600.731L359.25 600.72C359.359 600.709 370.327 599.758 381.665 599.758C390.883 599.758 397.847 600.376 402.365 601.594C407.225 602.906 410.411 605.254 411.834 608.57C413.838 613.24 411.373 617.888 411.267 618.084L410.698 619.134L354.606 627.688L311.327 804.573C310.637 808.32 307.249 815.261 299.217 815.261Z" fill="#BF1E2D"/>
<path d="M381.665 597.354C370.222 597.354 359.492 598.284 359.04 598.324L358.809 598.344L358.581 598.387L281.046 612.816L280.97 612.83L280.897 612.846C280.356 612.964 275.537 614.14 273.19 618.8C271.438 622.28 271.621 626.43 273.733 631.131C277.384 639.263 283.478 640.476 286.788 640.476C289.206 640.476 291.19 639.86 292.276 639.434L319.84 635.204C313.149 662.856 289.208 762.502 285.184 788.923L283.149 802.298L282.736 805.022C282.548 806.274 282.288 807.99 283.725 809.662L285.165 811.336H286.389C288.417 814.29 291.624 816.671 296.392 817.434C297.35 817.587 298.302 817.664 299.217 817.664C308.777 817.664 312.828 809.538 313.678 805.083L356.558 629.823L409.877 621.692L412.242 621.331L413.381 619.228C413.704 618.634 416.46 613.252 414.044 607.623C412.316 603.596 408.597 600.787 402.992 599.274C398.27 597.999 391.094 597.354 381.665 597.354ZM381.665 602.162C389.094 602.162 396.748 602.57 401.738 603.916C414.36 607.324 409.153 616.938 409.153 616.938L352.653 625.554L308.974 804.074C308.974 804.074 307.428 812.856 299.217 812.856C298.57 812.856 297.882 812.802 297.15 812.684C287.134 811.084 288.336 800.264 288.336 800.264C288.336 800.264 287.377 806.528 287.373 806.528C287.369 806.528 287.933 802.81 289.938 789.647C294.545 759.391 326.205 629.363 326.205 629.363L290.942 634.772C290.942 634.772 289.152 635.668 286.788 635.668C284.029 635.668 280.493 634.447 278.118 629.16C273.709 619.344 281.926 617.543 281.926 617.543L359.461 603.115C359.461 603.115 370.301 602.162 381.665 602.162Z" fill="white"/>
<path d="M516.237 662.736C514.528 663.023 511.269 671.072 509.623 681.044C508.992 685.736 508.861 694.443 511.239 697.542C511.817 698.295 512.359 698.452 512.765 698.504C512.916 698.523 513.064 698.534 513.209 698.534C516.401 698.534 518.696 693.25 520.031 682.828L520.093 682.347C520.888 676.278 519.637 663.643 516.245 662.739L516.237 662.736ZM385.987 781.684C385.529 781.684 385.065 781.667 384.597 781.635C384.529 781.636 384.445 781.638 384.348 781.638C382.643 781.638 376.675 781.152 371.483 774.895C362.584 764.175 360.925 743.042 366.545 712.067C365.953 711.794 365.144 711.535 364.207 711.535C363.831 711.535 363.452 711.576 363.072 711.658C362.584 717.882 360.473 740.163 354.744 749.439C354.057 751.275 351.379 757.532 346.801 757.532C345.769 757.532 344.768 757.212 343.827 756.586C338.924 753.312 340.381 749.452 341.164 747.38C341.349 746.888 341.525 746.424 341.616 746.03C342.315 743.006 346.512 714.171 345.725 703.216C343.5 702.251 339.625 699.994 338.54 695.688C337.344 690.94 339.955 685.434 346.297 679.322L346.44 679.195C346.987 678.747 351.935 674.814 357.204 674.814C360.399 674.814 363.064 676.264 364.919 679.008C365.623 679.874 367.976 683.283 366.312 688.528L373.361 688.639C374.72 685.45 378.32 679.027 385.272 679.027C386.393 679.027 387.555 679.204 388.723 679.552C391.852 680.483 396.152 682.16 397.349 685.947C398.579 689.828 395.905 694.096 393.013 697.81C388.264 713.655 378.977 754.646 390.375 762.736C390.435 762.742 390.509 762.746 390.592 762.746C392.639 762.746 394.612 760.63 396.004 756.94C396.648 755.238 397.343 753.74 398.079 752.154C401.305 745.204 405.321 736.554 408.081 702.299C408.179 699.052 409.484 669.528 423.444 669.528C423.984 669.528 424.54 669.575 425.096 669.668C430.46 670.562 433.948 672.626 435.463 675.806C437.096 679.232 435.759 682.692 435.212 683.848C434.411 687.835 426.244 729.071 428.091 743.462L428.109 743.614V743.767C428.109 743.862 428.276 753.588 433.123 754.419C433.183 754.43 433.244 754.434 433.305 754.434H433.307C437.404 754.432 444.844 738.126 446.555 722.072C448.088 707.68 452.244 674.352 452.552 671.883C452.571 670.975 452.82 667.76 455.361 665.159C457.448 663.023 460.432 661.94 464.231 661.94C464.847 661.94 465.5 661.968 466.191 662.031C470.397 662.406 473.401 663.798 475.121 666.17C477.455 669.388 476.571 673.207 476.237 674.643C476.219 674.73 476.2 674.803 476.187 674.866C476.163 675.171 476.072 675.879 475.736 678.462C474.417 688.574 470.404 719.347 471.372 728.072C472.876 741.619 474.672 745.723 475.987 746.664C478.433 745.834 485.932 735.648 487.207 722.491C486.975 718.78 484.575 675.752 496.088 652.926C496.388 652.358 503.033 640.032 513.029 640.032C515.015 640.032 516.983 640.52 518.892 641.486C519.721 641.37 521.061 641.226 522.64 641.226C529.843 641.226 534.921 644.106 536.941 649.334C540.524 658.606 541.968 682.603 532.092 697.418C525.791 706.867 520.744 713.554 513.153 713.554C511.477 713.554 509.741 713.235 507.843 712.566C508.027 719.45 509.304 730.919 513.965 735.822C515.383 737.314 516.996 738.076 518.893 738.151C520.011 737.936 526.544 736.455 530.504 730.599L531.323 729.392C536.469 721.822 546.048 707.731 549.568 689.024C549.759 688.134 551.475 680.878 556.553 680.878C557.144 680.878 557.743 680.983 558.333 681.19C564.077 683.2 562.876 691.696 562.719 692.658C562.515 694.455 556.959 739.363 521.613 752.594C520.84 752.952 516.793 754.71 511.579 754.71C507.109 754.71 501.012 753.395 495.688 747.66C492.889 753.484 486.288 763.638 474.223 763.8L473.94 763.803C462.541 763.803 456.48 754.815 453.641 745.855C450.215 756.783 442.988 771.623 429.013 771.623C428.823 771.623 428.225 771.608 428.225 771.608L428.015 771.564C427.415 771.438 415.769 768.892 410.92 760.616C404.152 774.602 395.779 781.684 385.987 781.684Z" fill="#BF1E2D"/>
<path d="M512.006 681.37C512.974 675.575 514.778 669.45 516.287 666.466C517.623 669.876 518.296 677.546 517.71 682.032L517.646 682.523C515.951 695.759 513.236 696.128 513.21 696.128C513.199 696.128 513.187 696.128 513.175 696.128C511.756 694.744 511.179 687.56 512.006 681.37ZM513.031 637.628H513.028C501.795 637.628 494.751 650.311 493.984 651.757L493.963 651.799L493.94 651.842C482.323 674.875 484.5 717.547 484.795 722.446C483.816 732.035 479.336 739.851 476.562 743.026C475.784 740.951 474.744 736.663 473.762 727.808C473.142 722.208 474.607 705.711 478.119 678.772C478.402 676.61 478.518 675.712 478.566 675.248L478.58 675.186C478.943 673.622 480.043 668.864 477.067 664.759C474.922 661.799 471.335 660.075 466.404 659.635C465.662 659.568 464.93 659.536 464.23 659.536C458.663 659.535 455.399 661.679 453.643 663.478C450.651 666.54 450.212 670.315 450.155 671.678C449.767 674.786 445.683 707.563 444.164 721.818C442.666 735.875 436.438 750.155 433.242 751.96C431.595 751.223 430.534 746.756 430.514 743.752L430.512 743.46L430.475 743.155C428.938 731.172 434.922 697.4 437.511 684.606C438.276 682.886 439.591 678.88 437.634 674.771C435.76 670.842 431.675 668.326 425.49 667.296C424.806 667.182 424.116 667.124 423.444 667.124C407.662 667.123 405.875 696.067 405.675 702.223C402.95 735.95 399.04 744.372 395.899 751.143C395.144 752.768 394.43 754.306 393.755 756.09C392.835 758.528 391.803 759.752 391.098 760.17C388.927 757.866 385.379 750.512 388.81 727.726C390.791 714.566 394.248 702.187 395.198 698.915C398.36 694.79 401.158 690.008 399.643 685.222C398.099 680.344 393.062 678.335 389.408 677.247C388.019 676.834 386.627 676.623 385.274 676.623H385.271C378.487 676.623 374.091 681.686 371.811 686.21L369.236 686.17C369.61 682.25 368.214 679.199 366.807 677.51C364.516 674.218 361.119 672.41 357.204 672.41C351.099 672.408 345.531 676.832 344.916 677.336L344.767 677.458L344.63 677.591C337.62 684.343 334.787 690.63 336.208 696.275C337.339 700.76 340.755 703.375 343.395 704.772C343.73 716.067 339.908 742.691 339.274 745.488C339.219 745.726 339.064 746.135 338.915 746.531C338.118 748.642 336 754.25 342.491 758.584C343.816 759.47 345.307 759.935 346.802 759.935C352.679 759.935 355.852 753.266 356.915 750.496C358.527 747.814 359.856 744.239 360.947 740.316C360.523 756.855 363.422 768.948 369.632 776.431C375.494 783.492 382.378 784.042 384.348 784.042C384.419 784.042 384.484 784.04 384.544 784.04C385.026 784.072 385.51 784.088 385.986 784.088C395.904 784.088 404.396 777.718 411.302 765.126C417.354 771.699 426.954 773.799 427.522 773.918L427.94 774.006L428.367 774.018C428.583 774.024 428.8 774.028 429.012 774.028C441.896 774.028 449.48 762.926 453.756 752.534C457.482 759.98 463.804 766.206 473.94 766.206L474.255 766.204C485.714 766.05 492.658 757.879 496.314 751.586C501.584 756.02 507.262 757.115 511.579 757.115C517.118 757.115 521.398 755.338 522.546 754.812C558.646 741.224 564.727 696.104 565.11 692.934C565.93 687.695 564.854 680.924 559.127 678.92C558.282 678.624 557.415 678.474 556.554 678.474C551.271 678.474 548.274 683.628 547.23 688.452L547.216 688.515L547.204 688.579C543.778 706.794 534.382 720.615 529.335 728.04L528.511 729.254C525.298 734.007 520.111 735.43 518.732 735.732C517.578 735.63 516.632 735.136 515.711 734.167C512.408 730.696 510.863 722.611 510.386 715.718C511.326 715.879 512.243 715.958 513.152 715.958C521.92 715.958 527.59 708.5 534.092 698.752C544.428 683.246 542.928 658.156 539.183 648.467C536.782 642.247 530.907 638.822 522.64 638.822C521.33 638.822 520.172 638.911 519.29 639.011C517.256 638.092 515.158 637.628 513.031 637.628ZM513.21 700.938C520.376 700.938 521.898 687.112 522.478 682.656C523.08 678.048 522.876 662.018 516.866 660.416C516.652 660.359 516.443 660.332 516.236 660.332C510.607 660.334 507.251 680.652 507.251 680.652C507.251 680.652 504.644 699.884 512.459 700.888C512.716 700.922 512.966 700.938 513.21 700.938ZM513.03 642.436C514.752 642.436 516.575 642.895 518.468 643.99C518.468 643.99 520.239 643.63 522.64 643.63C526.699 643.63 532.559 644.66 534.699 650.201C538.106 659.016 539.308 682.259 530.091 696.084C523.427 706.078 519.068 711.148 513.152 711.148C510.884 711.148 508.388 710.404 505.446 708.904C505.446 708.904 504.246 740.364 519.07 740.56C519.07 740.56 527.484 739.358 532.496 731.946C537.506 724.534 548.122 709.708 551.93 689.468C551.93 689.468 553.268 683.283 556.554 683.283C556.864 683.283 557.194 683.338 557.539 683.459C561.547 684.862 560.346 692.274 560.346 692.274C560.346 692.274 555.135 737.554 520.676 750.376C520.676 750.376 516.767 752.307 511.579 752.307C506.462 752.307 500.1 750.427 495.027 742.966C495.027 742.966 489.218 761.194 474.19 761.396C474.106 761.398 474.024 761.398 473.94 761.398C459.114 761.398 454.354 743.511 453.958 734.148C453.958 734.148 448.832 769.219 429.012 769.219C428.847 769.219 428.678 769.216 428.51 769.211C428.51 769.211 412.28 765.806 411.282 753.98C410.887 753.98 402.888 779.279 385.986 779.279C385.542 779.279 385.088 779.262 384.632 779.226C384.632 779.226 384.532 779.234 384.348 779.234C381.399 779.234 356.762 777.275 369.204 710.906C369.204 710.906 367.208 709.131 364.206 709.131C363.172 709.131 362.02 709.34 360.79 709.906C360.79 709.906 358.983 738.352 352.572 748.375C352.572 748.375 350.175 755.127 346.802 755.127C346.278 755.127 345.728 754.963 345.162 754.586C340.955 751.776 343.36 749.171 343.959 746.57C344.562 743.966 349.37 711.707 347.966 701.488C347.966 701.488 331.535 696.883 347.966 681.054C347.966 681.054 352.643 677.218 357.204 677.218C359.318 677.218 361.406 678.042 362.992 680.452C362.992 680.452 366.598 684.259 362.594 690.874L375.015 691.07C375.015 691.07 377.904 681.43 385.272 681.431C386.131 681.431 387.054 681.563 388.036 681.856C397.456 684.66 396.854 689.068 390.842 696.682C390.842 696.682 373.21 754.784 389.439 765.002C389.439 765.002 389.88 765.148 390.591 765.148C392.368 765.148 395.823 764.228 398.254 757.79C401.662 748.774 407.071 744.767 410.478 702.492C410.478 702.492 411.412 671.932 423.444 671.932C423.85 671.932 424.268 671.967 424.7 672.039C437.924 674.242 432.919 683.059 432.919 683.059C432.919 683.059 423.7 728.142 425.706 743.767C425.706 743.767 425.706 755.587 432.716 756.788C432.912 756.822 433.11 756.839 433.307 756.839C440.15 756.839 447.388 736.932 448.946 722.327C450.547 707.302 454.956 672.039 454.956 672.039C454.956 672.039 454.775 664.343 464.23 664.344C464.779 664.344 465.362 664.37 465.978 664.426C477.196 665.426 473.791 673.84 473.791 674.643C473.791 675.444 467.783 717.519 468.983 728.338C470.183 739.156 471.787 747.372 475.191 748.975C475.386 749.066 475.599 749.11 475.831 749.11C479.668 749.11 488.292 736.888 489.618 722.528C489.618 722.528 486.612 677.05 498.234 654.008C498.234 654.008 504.366 642.435 513.03 642.436Z" fill="white"/>
<path d="M612.58 782.721L623.553 619.213C602.188 617.979 557.273 597.594 555.313 596.701L552.893 595.597L561.857 560.118L565.604 562.586C574.22 568.262 595.196 572.226 616.611 572.226C629.98 572.226 642.835 570.709 653.784 567.838C685.763 559.458 730.217 559.217 735.181 559.217L739.192 559.241L736.543 610.667L733.037 610.107C725.937 608.971 717.727 608.395 708.633 608.395C687.98 608.395 668.011 611.375 660.881 612.561L671.121 796.802L612.58 782.721Z" fill="#006838"/>
<path d="M559.865 554.988L557.668 563.686L550.454 592.238L549.15 597.394L553.99 599.601C558.717 601.757 597.8 619.35 620.164 622.1L609.578 779.822L609.218 785.19L614.449 786.45L666.208 798.9L674.542 800.904L674.066 792.345L664.224 615.254C672.858 613.914 690.489 611.584 708.633 611.584C717.558 611.584 725.6 612.146 732.533 613.256L739.544 614.377L739.909 607.288L742.205 562.734L742.548 556.076L735.88 556.029L735.181 556.028C730.176 556.028 685.34 556.273 652.976 564.754C642.285 567.557 629.712 569.038 616.61 569.038C593.36 569.038 574.234 564.453 567.358 559.924L559.865 554.988ZM735.181 562.405C735.612 562.405 735.837 562.406 735.837 562.406L733.541 606.96C725.598 605.688 717.041 605.208 708.633 605.208C682.357 605.208 657.54 609.906 657.54 609.906L667.7 792.698L615.941 780.249L626.962 616.038C626.488 616.069 625.996 616.084 625.482 616.084C605.492 616.084 556.637 593.8 556.637 593.8L563.85 565.249C572.7 571.078 593.742 575.414 616.61 575.414C629.3 575.414 642.552 574.08 654.592 570.922C686.017 562.688 729.366 562.405 735.181 562.405Z" fill="white"/>
<path d="M778.749 690.165L808.557 588.286L831.485 676.078L778.749 690.165ZM820.677 557.494L788.249 559.131C767.938 604.01 702.42 771.077 702.42 771.077C703.73 777.954 743.369 803.505 743.369 803.505C745.66 793.023 763.678 739.958 763.678 739.958L851.144 739.301L863.922 789.094L866.542 790.073C872.762 782.542 886.193 779.922 886.193 779.922L820.677 557.494Z" fill="#006838"/>
<path d="M954.003 553.234L966.123 550.286L968.743 565.681C968.743 565.681 982.171 561.75 1000.85 565.681L1004.45 551.268L1013.95 553.234L1009.69 571.25C1009.69 571.25 1021.49 580.424 1026.07 589.269L1036.88 581.734L1043.43 592.544L1030.99 600.077L1036.56 616.457L1024.76 621.698C1024.76 621.698 1008.05 588.288 977.588 590.906C947.126 593.528 925.5 631.408 927.143 665.596C928.743 698.917 942.539 731.441 979.883 730.13C1017.23 728.82 1020.83 688.201 1020.83 688.201L1032.3 682.63L1037.87 701.63L1049.33 700.649L1049.66 711.46H1038.52C1038.52 711.46 1038.52 723.577 1034.26 734.716L1047.36 739.957L1043.43 749.786L1029.68 744.214C1029.68 744.214 1024.76 756.337 1012.31 764.201L1018.54 780.249L1008.38 787.458L1000.85 769.441C1000.85 769.441 988.724 776.973 971.364 774.681L968.743 793.68L956.626 790.73L961.535 772.713L941.882 766.164L934.35 781.232L924.852 773.702L931.73 759.284C931.73 759.284 920.262 749.789 913.711 738.32L899.624 746.838L893.402 737.34L907.484 728.165C907.484 728.165 897.662 704.252 898.312 683.614L882.592 686.561L879.97 673.785L897.983 670.182C897.983 670.182 900.603 646.926 907.162 627.924L892.744 617.77L899.952 606.63L912.732 616.132C912.732 616.132 922.226 597.129 926.486 594.184L915.023 578.786L924.195 571.58L935.002 585.338C935.002 585.338 946.468 572.236 957.608 568.958L954.003 553.234Z" fill="#006838"/>
<path d="M1134.67 760.922C1106.17 760.922 1083.07 728.73 1083.07 689.018C1083.07 649.308 1106.17 617.116 1134.67 617.116C1163.16 617.116 1186.26 649.308 1186.26 689.018C1186.26 728.73 1163.16 760.922 1134.67 760.922ZM1136.79 564.046C1093.01 564.046 1057.52 613.104 1057.52 673.622C1057.52 734.142 1093.01 783.201 1136.79 783.201C1180.58 783.201 1216.07 734.142 1216.07 673.622C1216.07 613.104 1180.58 564.046 1136.79 564.046Z" fill="#006838"/>
<path d="M283.627 921.913H350.251L316.863 947.744L283.627 921.913Z" fill="#BF1E2D"/>
<path d="M350.251 921.913L416.874 921.908L383.486 947.743L350.251 921.913Z" fill="#BF1E2D"/>
<path d="M416.873 921.908H483.499L450.109 947.743L416.873 921.908Z" fill="#BF1E2D"/>
<path d="M483.498 921.908L550.125 921.906L516.736 947.738L483.498 921.908Z" fill="#BF1E2D"/>
<path d="M550.125 921.906L616.749 921.9L583.361 947.735L550.125 921.906Z" fill="#BF1E2D"/>
<path d="M616.749 921.9H683.374L649.986 947.735L616.749 921.9Z" fill="#BF1E2D"/>
<path d="M683.374 921.9L750.001 921.898L716.609 947.735L683.374 921.9Z" fill="#BF1E2D"/>
<path d="M750 921.898H816.623L783.234 947.73L750 921.898Z" fill="#BF1E2D"/>
<path d="M816.623 921.898L883.247 921.897L849.857 947.727L816.623 921.898Z" fill="#BF1E2D"/>
<path d="M883.247 921.897H949.869L916.485 947.727L883.247 921.897Z" fill="#BF1E2D"/>
<path d="M949.869 921.896L1016.49 921.892L983.109 947.726L949.869 921.896Z" fill="#BF1E2D"/>
<path d="M1016.49 921.893H1083.12L1049.73 947.726L1016.49 921.893Z" fill="#BF1E2D"/>
<path d="M1083.12 921.893L1149.75 921.89L1116.36 947.721L1083.12 921.893Z" fill="#BF1E2D"/>
<path d="M1149.75 921.89L1216.37 921.887L1182.98 947.719L1149.75 921.89Z" fill="#BF1E2D"/>
<path d="M1216.08 922.105H283.663V826.274H1216.08V922.105Z" fill="#BF1E2D"/>
<path d="M326.528 860.753C326.212 862.135 325.68 864.639 324.931 868.267C324.496 870.277 324.083 872.171 323.69 873.945L329.782 874.892C328.164 869.725 327.08 865.012 326.528 860.753ZM320.022 853.063L333.331 854.009C334.238 855.745 335.026 857.995 335.696 860.753L337.472 867.733C340.823 878.54 344.334 887.491 348 894.589L336.643 897.547C334.198 891.435 332.542 886.092 331.675 881.516L322.032 880.569C320.258 885.46 319.311 888.141 319.194 888.615C318.207 891.376 317.498 894.116 317.063 896.837L306.239 894.531C313.534 877.219 318.128 863.396 320.022 853.063Z" fill="white"/>
<path d="M350.603 853.182L363.439 851.763C363.321 853.184 363.064 855.2 362.669 857.807C362.236 860.571 362.02 862.606 362.02 863.91V870.487V874.338V877.064C362.02 883.227 363.963 886.308 367.849 886.308C369.889 886.308 371.577 885.328 372.912 883.37C374.247 881.411 374.915 879.066 374.915 876.335V865.415C374.915 862.684 374.599 858.588 373.968 853.127L387.041 851.763C386.055 858.95 385.563 863.294 385.563 864.794C385.563 865.662 385.641 867.698 385.799 870.895C385.956 874.094 386.036 876.148 386.036 877.055C386.036 882.267 384.349 886.651 380.977 890.206C377.605 893.76 373.337 895.536 368.171 895.536C361.821 895.536 357.444 894.352 355.04 891.987C352.633 889.62 351.431 885.303 351.431 879.032C351.431 867.951 351.155 859.334 350.603 853.182Z" fill="white"/>
<path d="M391.536 861.818L392.187 853.181H401.238C409.794 853.181 416.223 853.104 420.522 852.946L420.935 861.346L412.003 861.581V884.296C412.003 885.441 412.2 888.872 412.595 894.589L399.936 896.482C400.566 892.058 400.883 886.608 400.883 880.128C400.883 876.732 400.863 873.612 400.823 870.766C400.744 866.026 400.724 862.905 400.764 861.404C398.635 861.286 397.058 861.228 396.032 861.228C396.307 861.228 394.81 861.425 391.536 861.818Z" fill="white"/>
<path d="M426.081 853.182L439.628 852.235C439.588 852.591 439.41 853.655 439.094 855.431C438.858 856.771 438.74 857.835 438.74 858.624V868.799H450.806V862.922C450.806 860.746 450.57 857.48 450.097 853.126L463.11 852.235C462.52 858.831 462.224 862.82 462.224 864.202V884.163C462.224 885.191 462.302 887.028 462.461 889.672C462.736 892.635 462.874 894.272 462.874 894.59L450.806 895.536V893.643V890.982V876.843H438.858V884.534C438.858 888.28 439.036 891.632 439.39 894.59L427.146 895.772C427.461 892.815 427.62 887.098 427.62 878.618C427.62 868.01 427.106 859.532 426.081 853.182Z" fill="white"/>
<path d="M469.203 853.182L495.822 854.602L495.171 862.114C492.292 861.918 487.974 861.7 482.216 861.463V869.035C485.214 868.562 489.708 867.971 495.703 867.262L495.348 875.896C494.796 875.896 490.419 876.291 482.216 877.08V885.539L496.414 883.587L497.538 892.756L470.446 894.59C470.446 893.722 470.494 891.779 470.592 888.763C470.691 885.746 470.74 883.804 470.74 882.935V869.39C470.74 863.711 470.228 858.31 469.203 853.182Z" fill="white"/>
<path d="M503.985 854.365L514.691 851.585L524.155 867.143C527.587 872.9 530.327 878.283 532.378 883.291C531.51 878.599 531.077 870.849 531.077 860.044C531.077 856.297 531.037 853.477 530.958 851.585L541.429 853.181C540.837 859.532 540.541 866.512 540.541 874.121C540.541 879.525 540.679 886.032 540.955 893.643L529.362 895.655L521.198 881.221C518.319 876.015 515.913 871.067 513.982 866.373C514.297 877.297 514.79 887.708 515.461 897.607L503.63 894.589C504.142 887.531 504.399 880.451 504.399 873.353C504.399 868.069 504.261 861.74 503.985 854.365Z" fill="white"/>
<path d="M540.778 861.818L541.428 853.181H550.479C559.035 853.181 565.464 853.104 569.763 852.946L570.176 861.346L561.244 861.581V884.296C561.244 885.441 561.442 888.872 561.836 894.589L549.178 896.482C549.807 892.058 550.124 886.608 550.124 880.128C550.124 876.732 550.104 873.612 550.064 870.766C549.986 866.026 549.966 862.905 550.006 861.404C547.876 861.286 546.299 861.228 545.274 861.228C545.548 861.228 544.051 861.425 540.778 861.818Z" fill="white"/>
<path d="M575.323 852.946L588.041 851.999L587.568 863.238C587.568 874.517 588.06 884.969 589.047 894.589L576.211 896.422V892.697C576.211 877.238 575.915 863.987 575.323 852.946Z" fill="white"/>
<path d="M611.938 852.118C616.63 852.118 620.219 852.432 622.703 853.063L622.763 862.823C620.475 862.194 617.381 861.876 613.475 861.876C610.359 861.876 608.279 862.379 607.235 863.382C606.19 864.386 605.667 866.363 605.667 869.312C605.667 875.016 606.742 879.138 608.891 881.674C611.041 884.211 614.501 885.479 619.273 885.479C620.534 885.479 621.875 885.303 623.295 884.947L623.355 894.475C621.422 894.944 619.43 895.18 617.381 895.18C609.847 895.18 604.07 892.828 600.049 888.122C596.026 883.416 594.014 876.692 594.014 867.948C594.014 861.49 595.454 857.158 598.333 854.952C600.777 853.063 605.313 852.118 611.938 852.118Z" fill="white"/>
<path d="M669.789 852.118C674.481 852.118 678.07 852.432 680.554 853.063L680.614 862.823C678.326 862.194 675.232 861.876 671.326 861.876C668.21 861.876 666.13 862.379 665.086 863.382C664.041 864.386 663.518 866.363 663.518 869.312C663.518 875.016 664.593 879.138 666.742 881.674C668.892 884.211 672.352 885.479 677.124 885.479C678.385 885.479 679.726 885.303 681.146 884.947L681.206 894.475C679.273 894.944 677.281 895.18 675.232 895.18C667.698 895.18 661.921 892.828 657.9 888.122C653.877 883.416 651.865 876.692 651.865 867.948C651.865 861.49 653.305 857.158 656.184 854.952C658.628 853.063 663.164 852.118 669.789 852.118Z" fill="white"/>
<path d="M706.581 861.463C703.347 861.463 700.981 862.194 699.482 863.652C697.983 865.111 697.235 867.458 697.235 870.691C697.235 874.044 697.965 877.336 699.423 880.57C701.237 884.554 703.603 886.546 706.522 886.546C709.045 886.546 711.007 885.431 712.407 883.203C713.807 880.975 714.507 878.027 714.507 874.359C714.507 865.763 711.865 861.463 706.581 861.463ZM707.054 851.999V852.058C712.93 852.058 717.633 854.07 721.162 858.092C724.691 862.114 726.457 867.359 726.457 873.826C726.457 880.098 724.613 885.323 720.926 889.502C717.238 893.683 712.535 895.772 706.818 895.772C699.838 895.772 694.375 892.991 690.433 887.432C686.962 882.543 685.226 876.45 685.226 869.154C685.226 863.632 687.129 859.392 690.935 856.435C694.741 853.478 700.113 851.999 707.054 851.999Z" fill="white"/>
<path d="M742.898 864.598H742.839L742.486 887.904V897.132L732.017 894.648C732.845 885.46 733.259 876.765 733.259 868.562C733.259 863.041 733.041 857.54 732.607 852.058L747.337 853.241C748.203 856.198 750.157 861.562 753.193 869.332C755.834 876.074 757.589 881.516 758.458 885.657C759.482 881.32 761.414 875.818 764.255 869.153C767.883 860.714 770.13 855.312 770.998 852.946L784.722 853.833L784.545 860.576V879.741C784.545 881.674 784.701 884.14 785.018 887.136L785.787 894.589L774.43 897.369C774.43 896.698 774.359 895.062 774.222 892.46C774.083 889.857 774.015 888.122 774.015 887.254V863.297C769.662 875.444 766.466 885.834 764.427 894.47L751.605 895.773C749.642 887.216 746.741 876.824 742.898 864.598Z" fill="white"/>
<path d="M791.465 853.182L818.084 854.602L817.433 862.114C814.553 861.918 810.236 861.7 804.479 861.463V869.035C807.475 868.562 811.971 867.971 817.965 867.262L817.609 875.896C817.057 875.896 812.68 876.291 804.479 877.08V885.539L818.675 883.587L819.799 892.756L792.708 894.59C792.708 893.722 792.756 891.779 792.855 888.763C792.952 885.746 793.003 883.804 793.003 882.935V869.39C793.003 863.711 792.491 858.31 791.465 853.182Z" fill="white"/>
<path d="M838.196 885.303C839.294 885.579 840.236 885.717 841.021 885.717C845.301 885.717 848.245 883.711 849.854 879.697C850.876 877.141 851.388 873.305 851.388 868.191C851.388 865.713 850.896 864.021 849.914 863.116C848.933 862.212 846.949 861.76 843.966 861.76H841.905C840.452 861.76 839.216 861.857 838.196 862.053V885.303ZM825.774 894.352H825.833C826.581 888.319 826.956 881.103 826.956 872.703C826.956 868.956 826.936 866.116 826.897 864.184C826.857 862.608 826.661 858.941 826.305 853.181H833.937C835.001 853.181 837.426 853.093 841.213 852.916C844.998 852.739 847.424 852.649 848.488 852.649C852.589 852.649 856.069 854.067 858.929 856.903C861.786 859.739 863.217 863.204 863.217 867.299C863.217 876.869 861.698 883.681 858.662 887.737C855.152 892.424 848.764 894.767 839.497 894.767C838.47 894.767 836.173 894.697 832.606 894.559C829.036 894.423 826.758 894.352 825.774 894.352Z" fill="white"/>
<path d="M889.599 861.463C886.365 861.463 883.999 862.194 882.501 863.652C881.002 865.111 880.253 867.458 880.253 870.691C880.253 874.044 880.982 877.336 882.442 880.57C884.254 884.554 886.622 886.546 889.539 886.546C892.063 886.546 894.025 885.431 895.426 883.203C896.825 880.975 897.525 878.027 897.525 874.359C897.525 865.763 894.883 861.463 889.599 861.463ZM890.071 851.999V852.058C895.949 852.058 900.65 854.07 904.181 858.092C907.709 862.114 909.474 867.359 909.474 873.826C909.474 880.098 907.63 885.323 903.943 889.502C900.255 893.683 895.554 895.772 889.835 895.772C882.855 895.772 877.394 892.991 873.45 887.432C869.979 882.543 868.245 876.45 868.245 869.154C868.245 863.632 870.146 859.392 873.954 856.435C877.758 853.478 883.13 851.999 890.071 851.999Z" fill="white"/>
<path d="M930.118 860.044C928.975 860.044 927.87 860.162 926.806 860.4V871.342H928.047C929.192 871.382 929.624 871.402 929.35 871.402C931.636 871.402 933.51 870.82 934.97 869.656C936.427 868.493 937.158 866.945 937.158 865.013C937.158 861.7 934.811 860.044 930.118 860.044ZM914.502 853.182H916.867H918.288H919.294C920.436 853.182 923.059 853.073 927.16 852.856C931.262 852.64 933.904 852.532 935.088 852.532C938.32 852.532 941.278 853.754 943.96 856.198C946.642 858.644 947.982 861.444 947.982 864.598C947.982 867.281 947.095 869.677 945.32 871.786C943.546 873.896 941.358 875.228 938.755 875.778C942.186 882.758 946.66 889.029 952.183 894.589L943.014 901.333C934.97 891.749 929.646 883.37 927.042 876.192V883.233C927.042 887.017 927.16 890.804 927.398 894.589L915.092 897.369C915.487 893.741 915.686 890.488 915.686 887.609V865.308C915.686 862.114 915.291 858.072 914.502 853.182Z" fill="white"/>
<path d="M979.57 853.182L992.702 851.763C992.67 852.472 992.532 854.346 992.287 857.382C992.011 859.591 991.874 861.484 991.874 863.06V886.248C997.788 885.618 1002.19 884.947 1005.06 884.238L1006.01 892.932L980.042 894.531C980.319 888.931 980.456 884.731 980.456 881.931V873.708V868.918V865.487C980.456 864.894 980.16 860.794 979.57 853.182Z" fill="white"/>
<path d="M1030.26 860.753C1029.95 862.135 1029.42 864.639 1028.67 868.267C1028.23 870.277 1027.82 872.171 1027.42 873.945L1033.52 874.892C1031.9 869.725 1030.82 865.012 1030.26 860.753ZM1023.76 853.063L1037.07 854.009C1037.97 855.745 1038.76 857.995 1039.43 860.753L1041.21 867.733C1044.56 878.54 1048.07 887.491 1051.74 894.589L1040.38 897.547C1037.93 891.435 1036.28 886.092 1035.41 881.516L1025.77 880.569C1023.99 885.46 1023.05 888.141 1022.93 888.615C1021.94 891.376 1021.23 894.116 1020.8 896.837L1009.97 894.531C1017.27 877.219 1021.86 863.396 1023.76 853.063Z" fill="white"/>
<path d="M1053.57 861.818L1054.22 853.181H1063.27C1071.83 853.181 1078.26 853.104 1082.55 852.946L1082.97 861.346L1074.04 861.581V884.296C1074.04 885.441 1074.23 888.872 1074.63 894.589L1061.97 896.482C1062.6 892.058 1062.92 886.608 1062.92 880.128C1062.92 876.732 1062.9 873.612 1062.86 870.766C1062.78 866.026 1062.76 862.905 1062.8 861.404C1060.67 861.286 1059.09 861.228 1058.07 861.228C1058.34 861.228 1056.84 861.425 1053.57 861.818Z" fill="white"/>
<path d="M1088.11 852.946L1100.83 851.999L1100.36 863.238C1100.36 874.517 1100.85 884.969 1101.84 894.589L1089 896.422V892.697C1089 877.238 1088.71 863.987 1088.11 852.946Z" fill="white"/>
<path d="M1107.87 854.365L1118.58 851.585L1128.04 867.143C1131.47 872.9 1134.21 878.283 1136.26 883.291C1135.4 878.599 1134.96 870.849 1134.96 860.044C1134.96 856.297 1134.92 853.477 1134.84 851.585L1145.32 853.181C1144.72 859.532 1144.43 866.512 1144.43 874.121C1144.43 879.525 1144.57 886.032 1144.84 893.643L1133.25 895.655L1125.08 881.221C1122.21 876.015 1119.8 871.067 1117.87 866.373C1118.18 877.297 1118.68 887.708 1119.35 897.607L1107.52 894.589C1108.03 887.531 1108.29 880.451 1108.29 873.353C1108.29 868.069 1108.15 861.74 1107.87 854.365Z" fill="white"/>
<path d="M1166.31 861.463C1163.08 861.463 1160.71 862.194 1159.22 863.652C1157.72 865.111 1156.97 867.458 1156.97 870.691C1156.97 874.044 1157.7 877.336 1159.16 880.57C1160.97 884.554 1163.34 886.546 1166.25 886.546C1168.78 886.546 1170.74 885.431 1172.14 883.203C1173.54 880.975 1174.24 878.027 1174.24 874.359C1174.24 865.763 1171.6 861.463 1166.31 861.463ZM1166.79 851.999V852.058C1172.66 852.058 1177.36 854.07 1180.9 858.092C1184.42 862.114 1186.19 867.359 1186.19 873.826C1186.19 880.098 1184.34 885.323 1180.66 889.502C1176.97 893.683 1172.27 895.772 1166.55 895.772C1159.57 895.772 1154.11 892.991 1150.16 887.432C1146.69 882.543 1144.96 876.45 1144.96 869.154C1144.96 863.632 1146.86 859.392 1150.67 856.435C1154.47 853.478 1159.84 851.999 1166.79 851.999Z" fill="white"/>
</svg>
